<?xml version="1.0" standalone="no"?>
<!DOCTYPE svg PUBLIC "-//W3C//DTD SVG 1.1//EN" "http://www.w3.org/Graphics/SVG/1.1/DTD/svg11.dtd" >
<svg xmlns="http://www.w3.org/2000/svg">
<metadata>Generated by IcoMoon</metadata>
<defs>
<font id="mt-icons" horiz-adv-x="512">
<font-face units-per-em="512" ascent="480" descent="-32" />
<missing-glyph horiz-adv-x="512" />
<glyph unicode="&#x20;" d="" horiz-adv-x="256" />
<glyph unicode="&#xe600;" d="M423.209 176.875c15.38 0 22.231 5.99 22.231 21.401v50.606c0 15.401-6.851 20.521-22.231 20.521h-335.232c-14.576 0-21.417-5.135-21.417-20.521v-50.606c0-15.421 6.841-21.401 21.417-21.401h335.232z" />
<glyph unicode="&#xe601;" d="M256 413.44c-104.627 0-189.44-84.834-189.44-189.44s84.813-189.44 189.44-189.44c104.606 0 189.44 84.834 189.44 189.44s-84.834 189.44-189.44 189.44zM172.477 197.683c-1.894 0-3.518 8.791-3.722 11.719-0.855 11.914 2.043 23.522 6.19 34.191 0.865 2.222 1.879 4.352 2.929 6.457 3.983 8.018 9.287 15.242 16.016 21.576 8.505 7.982 19.231 14.331 32.231 19.005 11.494 4.147 24.96 6.395 40.176 6.953v20.69c0 4.93 4.337 5.299 7.608 2.457l45.286-36.409c2.974-2.483 2.974-7.429 0-9.902l-45.286-36.424c-3.257-2.452-7.577-2.811-7.577 2.13v20.454h-2.058c-11.879-0.558-22.61-2.068-32.036-4.644-11.505-3.138-21.218-7.429-29.179-12.821-2.939-1.982-8.422-6.897-8.422-6.897-3.932-3.758-7.342-7.828-10.266-12.135-9.523-14.085-11.888-26.404-11.888-26.404zM337.045 204.406c-0.87-2.222-1.894-4.352-2.928-6.457-3.968-8.034-9.283-15.242-16.015-21.575-8.51-7.998-19.241-14.356-32.231-19.036-11.5-4.147-24.955-6.395-40.192-6.953v-20.659c0-4.946-4.332-5.299-7.577-2.457l-45.297 36.409c-2.99 2.483-2.99 7.429 0 9.902l45.297 36.423c3.246 2.452 7.577 2.811 7.577-2.13v-20.439h2.048c11.878 0.533 22.599 2.053 32.010 4.628 11.515 3.17 21.207 7.414 29.184 12.82 2.928 1.981 8.407 6.897 8.407 6.897 3.938 3.758 7.342 7.829 10.271 12.119 9.559 14.090 11.899 26.388 11.899 26.388 1.894 0 3.522-8.791 3.728-11.704 0.865-11.914-2.063-23.521-6.18-34.176z" />
<glyph unicode="&#xe602;" d="M394.675 351.862l-66.877 0.988c0 0 11.279 60.534-42.117 60.534-53.412 0-71.214 0-71.214 0s-41.529-1.598-29.082-59.244h-62.976c-30.951 0-30.766-30.761-30.766-30.761v-22.942c0-15.734 12.743-28.478 28.477-28.478h274.555c15.734 0 28.473 12.743 28.473 28.478v22.942c0 15.734-12.738 28.482-28.473 28.482zM289.822 369.142h-65.27c-7.204 0-13.061 5.837-13.061 13.051 0 7.209 5.857 13.056 13.061 13.056h65.27c7.219 0 13.072-5.842 13.072-13.056s-5.847-13.051-13.072-13.051zM107.131 258.386v-196.229c0-18.089 14.669-32.748 32.768-32.748l232.627-0.021c18.069 0.021 32.727 14.679 32.727 32.768l0.021 196.229h-298.142zM183.941 71.659c0-6.999-5.653-12.662-12.651-12.662-7.010 0-12.677 5.673-12.677 12.662v151.895c0 7.010 5.678 12.672 12.677 12.672s12.651-5.662 12.651-12.672v-151.895zM273.767 71.659c0-6.999-5.668-12.662-12.656-12.662-6.999 0-12.667 5.673-12.667 12.662v151.895c0 7.010 5.662 12.672 12.667 12.672 7.004 0 12.656-5.662 12.656-12.672v-151.895zM359.613 73.431c0-7.004-5.678-12.656-12.688-12.656-6.978 0-12.651 5.652-12.651 12.656v151.911c0 6.999 5.668 12.662 12.651 12.662 7.004 0 12.688-5.662 12.688-12.662v-151.911z" />
<glyph unicode="&#xe603;" d="M256.015 413.44c-104.632 0-189.456-84.834-189.456-189.44 0-104.637 84.823-189.44 189.456-189.44 104.622 0 189.424 84.803 189.424 189.44 0 104.606-84.803 189.44-189.424 189.44zM214.251 263.117l35.564 49.623c2.411 2.913 7.229 2.913 9.656 0l35.589-49.623c2.411-3.179 2.755-7.429-2.089-7.429h-76.303c-4.828-0.005-5.177 4.25-2.417 7.429zM295.040 184.868l-35.574-49.608c-2.411-2.898-7.23-2.898-9.656 0l-35.579 49.608c-2.411 3.195-2.76 7.429 2.084 7.429h76.293c4.834 0.005 5.187-4.234 2.432-7.429zM334.827 218.317c0-3.492-1.572-4.88-5.079-4.88h-147.686c-3.338 0-4.885 1.387-4.885 4.88v11.546c0 3.512 1.561 4.706 4.885 4.706l147.686-0.025c3.481 0 5.079-1.173 5.079-4.695v-11.53z" />
<glyph unicode="&#xe604;" d="M343.26 273.321l29.317-3.19-3.2 29.235c-0.302 3.195 2.601 6.082 5.801 5.791l29.302-3.185-3.19 29.25c-0.307 3.174 2.596 6.072 5.796 5.775l29.337-3.19c12.175 12.513 12.027 25.021-0.517 37.534l-33.387 33.331c-12.738 12.697-23.88 11.115-36.598-1.582l-110.387-110.126c-49.403 21.427-109.025 12.027-149.406-28.278-52.767-52.654-52.767-138 0-190.638 52.762-52.644 138.291-52.644 191.048 0 40.392 40.305 49.822 99.784 28.339 149.084l15.145 15.104-3.205 29.307c-0.292 3.174 2.611 6.062 5.806 5.775zM258.125 153.467h-41.124v-40.74c0-4.905-2.038-7.224-7.23-7.224h-17.081c-4.951 0-6.681 2.32-6.681 7.224v40.74h-41.124c-4.915 0-7.23 2.012-7.23 7.229v17.039c0 5.197 2.314 6.922 7.23 6.922h41.124v41.042c0 5.197 1.731 7.511 6.681 7.511h17.081c5.191 0 7.23-2.325 7.23-7.511v-41.042h41.124c5.197 0 7.522-1.736 7.522-6.922v-17.039c-0.010-5.223-2.329-7.229-7.522-7.229z" />
<glyph unicode="&#xe605;" d="M151.772 34.56h208.455c21.335 0 27.202 9.774 30.48 30.474l32.804 209.173c0 21.32-9.139 30.464-30.474 30.464h-20.551l-9.159 86.257c-2.079 15.79-6.753 22.512-22.518 22.512h-169.631c-15.754 0-20.588-6.287-22.507-22.507l-9.155-86.257h-20.547c-21.33 0-30.474-9.144-30.474-30.464l32.804-209.173c3.42-20.347 9.145-30.48 30.474-30.48zM180.951 374.994c0 6.533 2.8 9.344 9.328 9.344h131.42c6.538 0 9.339-2.811 9.339-9.344v-60.964c0-6.543-2.8-9.344-9.339-9.344h-131.405c-6.538 0-9.339 2.8-9.339 9.344l-0.005 60.964z" />
<glyph unicode="&#xe606;" d="M414.556 375.664h-317.133c-17.049 0-30.864-13.834-30.864-30.878v-188.544c0-17.065 13.819-30.878 30.864-30.878h91.254v-21.058h-54.298v-31.964h243.241v31.964h-58.553v21.058h95.498c17.065 0 30.868 13.814 30.868 30.878v188.544c-0.010 17.045-13.814 30.879-30.878 30.879zM414.198 161.275h-316.401v177.762h316.406v-177.762z" />
<glyph unicode="&#xe607;" d="M432.2 275.486l-118.825 9.913-45.865 109.25c-5.161 13.087-16.226 13.087-22.139 0l-45.824-109.168-119.926-10.025c-14.034-0.865-17.465-11.402-6.846-21.059l91.12-78.561-27.136-115.512c-3.518-13.63 5.438-20.137 17.91-13.020l101.893 61.793 102.902-62.382c11.878-7.557 20.834-1.055 17.92 13.015l-27.663 117.658 89.334 77.036c10.839 8.96 7.434 19.497-6.856 21.064z" />
<glyph unicode="&#xe608;" d="M405.156 57.329h-209.054l0.482 17.828c0.24 9.529 0.143 96.957 0.030 174.101-0.066 60.902-0.143 113.521-0.030 123.418l0.179 17.172h208.379c22.252 0 40.305-18.104 40.305-40.335v-251.827c0.010-22.257-18.043-40.356-40.289-40.356zM231.419 92.058h173.716c3.108 0 5.606 2.478 5.606 5.637v251.827c0 3.093-2.483 5.622-5.606 5.622h-173.875c-0.016-22.759 0.016-63.447 0.082-105.831 0.077-62.413 0.174-126.438 0.077-157.255zM389.632 336.317c4.613 0 6.902-1.7 6.902-6.282v-38.907c0-4.588-2.288-6.876-6.902-6.876h-137.723c-5.177 0-6.871 2.288-6.871 6.876v38.907c0 4.582 1.7 6.282 6.871 6.282h137.723zM268.585 253.394c9.918 0 17.956-8.043 17.956-17.94 0-9.917-8.043-17.961-17.956-17.961-9.902 0-17.94 8.043-17.94 17.961 0 9.897 8.038 17.94 17.94 17.94zM320.804 253.41c9.918 0 17.956-8.038 17.956-17.956 0-9.933-8.038-17.976-17.956-17.976-9.933 0-17.971 8.038-17.971 17.976-0.005 9.917 8.038 17.956 17.971 17.956zM373.007 253.394c9.918 0 17.94-8.043 17.94-17.94 0-9.917-8.023-17.961-17.94-17.961s-17.94 8.043-17.94 17.961c0 9.897 8.023 17.94 17.94 17.94zM268.585 203.546c9.918 0 17.956-8.038 17.956-17.94 0-9.918-8.043-17.956-17.956-17.956-9.902 0-17.94 8.038-17.94 17.956 0 9.902 8.038 17.94 17.94 17.94zM320.804 203.561c9.918 0 17.956-8.038 17.956-17.956 0-9.928-8.038-17.976-17.956-17.976-9.933 0-17.971 8.043-17.971 17.976-0.005 9.913 8.038 17.956 17.971 17.956zM390.953 185.6c0-9.911-8.034-17.945-17.945-17.945s-17.945 8.034-17.945 17.945c0 9.911 8.034 17.945 17.945 17.945 9.911 0 17.945-8.034 17.945-17.945zM268.585 153.666c9.918 0 17.956-8.038 17.956-17.94 0-9.918-8.043-17.961-17.956-17.961-9.902 0-17.94 8.043-17.94 17.961 0 9.897 8.038 17.94 17.94 17.94zM320.804 153.682c9.918 0 17.956-8.038 17.956-17.956 0-9.933-8.038-17.976-17.956-17.976-9.933 0-17.971 8.038-17.971 17.976-0.005 9.913 8.038 17.956 17.971 17.956zM390.958 135.716c0-9.914-8.037-17.95-17.95-17.95-9.914 0-17.95 8.037-17.95 17.95 0 9.914 8.037 17.95 17.95 17.95 9.914 0 17.95-8.037 17.95-17.95zM66.56 320.738c0 40.924 4.066 69.934 91.786 69.934h3.927c5.238 0 7.849-1.715 7.849-6.841v-85.187c0-4.552-2.611-6.81-7.849-6.81l-3.927-0.031c-33.449 0-34.12-19.287-34.12-47.155v-39.629c0-27.842 1.987-47.175 34.12-47.175l3.927 0.015c5.238 0 7.849-2.274 7.849-6.841v-86.318c0-5.125-2.611-6.841-7.849-6.841l-3.927 0.015c-87.721 0-91.786 28.995-91.786 69.883v192.978z" />
<glyph unicode="&#xe609;" d="M256 413.44c-104.606 0-189.44-84.803-189.44-189.44 0-104.606 84.834-189.44 189.44-189.44s189.44 84.834 189.44 189.44c0 104.637-84.834 189.44-189.44 189.44zM255.984 99.118c-60.001 0-108.826 48.865-108.826 108.867 0 16.963 3.891 33.034 10.834 47.329l0.149 0.353c1.566 3.687 3.732 3.911 7.194 2.576l9.441-3.641c3.569-1.362 4.588-2.765 3.036-6.804l-0.266-0.625c-5.995-11.827-9.369-25.026-9.369-39.158 0-48.425 39.399-87.818 87.808-87.818s87.823 39.394 87.823 87.818c0 41.84-29.409 76.928-68.659 85.694v-31.749c0-5.248-4.603-5.622-8.048-2.621l-47.984 38.615c-3.169 2.621-3.169 7.859 0 10.496l47.984 38.61c3.476 2.621 8.048 3.005 8.048-2.258v-29.66c50.928-9.103 89.692-53.637 89.692-107.126 0-60.058-48.839-108.897-108.856-108.897z" />
<glyph unicode="&#xe60a;" d="M428.216 244.613l-1.014 1.008c0 0 0 0 0 0.005l-163.727 163.267c-5.965 5.939-9.933 5.949-15.227 0.67l-13.895-13.88c-5.299-5.269-5.954-9.902 0-15.836l136.243-135.874h-293.12c-8.192 0-10.921-2.724-10.921-9.984v-19.072c0-7.255 2.729-10.89 10.916-10.89h293.463l-136.581-136.213c-5.954-5.934-5.954-9.902-0.666-15.175l13.901-13.87c5.294-5.279 9.927-5.939 15.893 0l164.398 163.932c0 0.005 0 0.005 0 0.005l0.962 0.962 12.278 12.242c0.010 0.015 0.021 0.026 0.031 0.041l0.635 0.635c5.289 5.274 4.628 9.892-0.666 15.181l-12.902 12.846z" />
<glyph unicode="&#xe60b;" d="M256 413.44c-104.606 0-189.44-84.823-189.44-189.44 0-104.606 84.834-189.44 189.44-189.44 104.637 0 189.44 84.834 189.44 189.44 0 104.617-84.803 189.44-189.44 189.44zM352.322 220.139l-0.313-0.317c-0.031-0.015-0.031-0.015-0.031-0.015l-92.114-92.124c-3.092-3.077-5.494-2.75-8.213 0l-7.225 7.24c-2.719 2.719-2.719 4.782 0.353 7.885l70.835 70.835h-152.177c-4.26 0-5.678 1.894-5.678 5.658v9.912c0 3.774 1.418 5.186 5.678 5.186h151.998l-70.656 70.656c-3.077 3.088-2.734 5.483 0 8.228l7.225 7.214c2.734 2.739 4.782 2.739 7.874-0.333l92.114-92.098c2.75-2.78 3.077-5.191 0.327-7.926z" />
<glyph unicode="&#xe60c;" d="M66.56 224c0-104.606 84.834-189.44 189.44-189.44s189.44 84.834 189.44 189.44c0 104.627-84.834 189.44-189.44 189.44s-189.44-84.813-189.44-189.44zM259.865 320.313l0.313-0.302c0.031-0.030 0.031-0.030 0.031-0.030l92.114-92.119c3.077-3.093 2.75-5.489 0-8.213l-7.24-7.224c-2.719-2.75-4.782-2.75-7.885 0.338l-70.841 70.846v-152.167c0-4.26-1.894-5.678-5.652-5.678h-9.917c-3.774 0-5.181 1.418-5.181 5.678v151.998l-70.656-70.656c-3.093-3.077-5.488-2.75-8.228 0l-7.219 7.224c-2.739 2.739-2.739 4.782 0.322 7.875l92.124 92.109c2.76 2.765 5.177 3.082 7.915 0.322z" />
<glyph unicode="&#xe60d;" d="M365.409 409.37c-42.219 12.524-86.211-4.757-109.409-39.629-23.198 34.873-67.174 52.163-109.43 39.629-51.856-15.36-81.433-69.904-66.043-121.785 2.094-7.030 4.941-13.635 8.382-19.794 1.766-3.415 3.717-6.733 5.826-9.789l148.828-214.303c3.43-5.104 6.958-8.007 10.122-8.848 0.113-0.057 0.185-0.077 0.24-0.077 0.317-0.092 0.63-0.108 0.917-0.164 0.272-0.031 0.548-0.051 0.809-0.051 0.256 0 0.533 0.021 0.784 0.057 0.286 0.057 0.604 0.077 0.916 0.164 0 0 0.149 0.021 0.24 0.098 3.164 0.829 6.676 3.733 10.096 8.827l145.495 209.49c8.141 9.84 14.428 21.422 18.284 34.411 15.396 51.861-14.203 106.404-66.058 121.764z" />
<glyph unicode="&#xe60e;" d="M366.766 309.765v52.905c0 32.738-18.027 50.77-50.75 50.77h-120.028c-32.727 0-50.745-18.027-50.745-50.77v-52.91c-25.733-0.86-46.403-22.021-46.403-47.959v-179.185c0-26.522 21.55-48.062 48.041-48.062h218.235c26.501 0 48.046 21.55 48.046 48.062v179.185c0.010 25.943-20.67 47.089-46.397 47.964zM297.042 92.318h-82.069l17.879 71.87c-13.803 8.002-23.096 22.907-23.096 40.007 0 25.549 20.721 46.259 46.264 46.259 25.564 0 46.269-20.71 46.269-46.259 0-17.122-9.298-32.021-23.111-40.023l17.863-71.854zM328.494 309.868h-144.978v52.803c0 11.556 0.922 12.493 12.472 12.493h120.028c11.546 0 12.473-0.937 12.473-12.488l0.005-52.807z" />
<glyph unicode="&#xe60f;" d="M325.069 238.889v26.895c0.010 21.335-16.993 38.723-38.159 39.45v43.51c0 26.921-14.827 41.748-41.733 41.748h-98.714c-26.91 0-41.728-14.832-41.728-41.753v-43.515c-21.177-0.702-38.174-18.104-38.174-39.44v-147.374c0-21.801 17.721-39.511 39.506-39.511h168.002c-11.111 17.009-17.593 37.33-17.593 59.172 0.005 45.788 28.437 84.941 68.592 100.818zM229.571 126.397h-67.492l14.7 59.1c-11.351 6.579-19 18.852-19 32.901 0 21.023 17.044 38.052 38.041 38.052 21.028 0 38.062-17.029 38.062-38.052 0-14.070-7.649-26.332-19.021-32.911l14.71-59.090zM255.431 305.31h-119.23v43.433c0 9.498 0.758 10.276 10.256 10.276h98.719c9.493 0 10.256-0.773 10.256-10.265v-43.443zM364.759 177.418c-19.092 0-24.812-8.238-24.812-17.613v-6.635c-0.005-1.603 0.568-2.288 2.166-2.288h6.646c1.479 0 2.048 0.702 2.048 2.288v4.921c0 6.298 3.769 9.948 13.952 9.948 10.071 0 13.962-3.661 13.962-9.948v-5.822c0-4.808-3.318-6.978-5.156-8.002l-9.144-4.705c-2.969-1.479-7.322-3.988-7.322-10.619v-8.458c0-1.608 0.568-2.171 2.048-2.171h7.101c1.479 0 2.058 0.558 2.058 2.171v5.709c0 4.24 2.401 5.959 5.253 7.342l6.293 2.964c4.004 1.935 9.954 6.293 9.954 16.123v7.183c-0.118 9.375-5.945 17.613-25.047 17.613zM366.249 112.231h-7.101c-1.479 0-2.048-0.691-2.048-2.171v-9.149c0-1.603 0.568-2.161 2.048-2.161h7.101c1.479 0 2.058 0.558 2.058 2.161v9.149c0.005 1.479-0.579 2.171-2.058 2.171zM364.872 218.634c-44.493 0-80.563-36.075-80.563-80.563 0-44.493 36.070-80.558 80.563-80.558 44.498-0.005 80.569 36.060 80.569 80.558 0 44.488-36.070 80.563-80.568 80.563zM364.872 80.732c-31.662 0-57.349 25.682-57.349 57.339 0 31.688 25.687 57.339 57.349 57.339 31.678 0 57.349-25.651 57.349-57.339 0-31.662-25.671-57.339-57.349-57.339z" />
<glyph unicode="&#xe610;" d="M-10210.247 276.587v-18.703c0-7.792 3.901-11.684 11.689-11.684h20.485c7.782 0 10.721 3.891 10.721 11.684v18.703c0 8.796-2.939 11.72-10.721 11.72h-20.485c-7.788 0-11.689-2.928-11.689-11.72zM-10178.074 229.878h-20.485c-7.788 0-11.689-2.934-11.689-11.725v-84.454c0-7.788 3.901-11.689 11.689-11.689h20.485c7.782 0 10.721 3.901 10.721 11.689v84.454c0 8.791-2.939 11.725-10.721 11.725zM-10188.784 385.168c-14.51 0-28.15-7.767-36.598-20.997l-142.704-231.45c-11.111-16.845-13.297-37.007-5.555-51.471 6.262-11.719 18.002-18.422 32.236-18.422h306.663c13.307 0 24.443 6.052 30.515 16.645 9.462 16.471 3.733 37.934-5.043 52.951l-143.068 231.987c-8.294 12.99-21.893 20.757-36.444 20.757zM-10040.299 103.173l-297.288 0.010c0.42 2.017 1.367 4.639 3.236 7.454l143.16 232.105c1.849 2.913 3.133 2.622 4.649 0.231l142.648-231.286c1.838-3.128 2.954-6.118 3.594-8.514zM-9745.756 311.67l-13.865-13.875c-5.289-5.304-5.939-9.928 0-15.862l177.808-146.192c5.709-4.618 9.093-4.291 15.186 0.661l177.127 145.536c5.95 5.934 5.95 9.928 0.671 15.175l-13.88 13.87c-5.269 5.31-9.897 5.945-15.831 0l-156.022-124.38-156.012 124.38c-5.939 5.939-9.913 5.939-15.181 0.686zM-8967.275 129.28l-182.165 189.44h378.88zM-8501.785 137.006l156.022 124.411 156.016-124.411c5.939-5.945 10.557-5.284 15.831 0l13.881 13.88c5.284 5.279 5.269 9.241-0.671 15.175l-177.126 145.536c-6.083 4.962-9.493 5.289-15.196 0.666l-177.797-146.207c-5.944-5.95-5.284-10.567 0-15.841l13.865-13.88c5.279-5.269 9.242-5.269 15.175 0.671zM-7541.76 129.28h-378.88l182.164 189.44zM-7116.79 413.435c-104.617 0-189.45-84.823-189.45-189.435 0-104.601 84.833-189.435 189.45-189.435s189.43 84.834 189.43 189.435c0 104.612-84.813 189.435-189.43 189.435zM-7018.435 216.668c0-4.388-1.95-6.087-6.328-6.087h-184.3c-4.147 0-6.093 1.705-6.093 6.087v14.423c0 4.377 1.95 5.852 6.093 5.852h184.3c4.377 0 6.328-1.475 6.328-5.852v-14.423zM-6502.416 265.712c-23.045 0-41.692-18.672-41.692-41.707 0-12.242 5.355-23.193 13.788-30.802l26.466 28.242-7.383-38.154c2.857-0.625 5.785-0.962 8.837-0.962 23.030 0 41.718 18.637 41.718 41.677 0 23.035-18.718 41.708-41.733 41.708zM-6502.4 343.235c-65.725 0-119.23-53.499-119.23-119.245 0-34.483 14.828-65.536 38.364-87.306l25.185 26.865c-16.348 15.063-26.665 36.526-26.665 60.442 0 45.41 36.956 82.34 82.36 82.34 45.389 0 82.329-36.93 82.329-82.34 0-45.348-36.941-82.288-82.329-82.288-5.683 0-11.203 0.563-16.574 1.659l-6.999-36.199c7.634-1.541 15.493-2.37 23.573-2.37 65.741 0 119.214 53.488 119.214 119.198-0.016 65.746-53.489 119.245-119.23 119.245zM-6502.385 413.445c-104.474 0-189.456-85.007-189.456-189.502 0-54.656 23.429-103.849 60.621-138.481l25.19 26.89c-30.014 27.868-48.932 67.522-48.932 111.575 0 84.142 68.449 152.596 152.576 152.596 84.111 0 152.515-68.459 152.515-152.596 0-84.060-68.418-152.469-152.515-152.469-10.24 0-20.229 1.050-29.942 3l-6.984-36.229c11.955-2.35 24.284-3.687 36.926-3.687 104.443 0 189.425 84.982 189.425 189.394 0 104.505-84.982 189.507-189.425 189.507zM-10171.039-328.069v27.069h-72.402c-3.405 0-6.154-2.775-6.154-6.164v-166.385c0-3.415 2.77-6.185 6.154-6.185h109.46c3.405 0 6.185 2.78 6.185 6.185v0 130.294h-28.073c-8.381 0-15.171 6.809-15.171 15.186zM-10150.912-393.159c3.492 0 5.049-1.147 5.049-4.669v-11.469c0-3.476-1.557-4.838-5.049-4.838h-27.586v-27.413c0-3.271-1.362-4.823-4.854-4.823h-11.459c-3.313 0-4.47 1.536-4.47 4.823v27.413h-27.586c-3.313 0-4.854 1.362-4.854 4.838v11.469c0 3.507 1.541 4.669 4.854 4.669h27.586v27.602c0 3.471 1.152 5.043 4.47 5.043h11.459c3.492 0 4.854-1.562 4.854-5.043v-27.602h27.586zM-10188.784-200.96c-104.622 0-189.456-84.823-189.456-189.44 0-104.606 84.834-189.44 189.456-189.44 104.622 0 189.424 84.833 189.424 189.44 0 104.617-84.802 189.44-189.424 189.44zM-10109.947-475.294c-0.916-12.519-11.28-22.451-24.018-22.451h-109.476c-13.348 0-24.197 10.85-24.197 24.197v166.4c0 13.046 10.404 23.644 23.342 24.11h82.258l52.112-52.076v-140.176h-0.021zM-9574.4-200.965c-104.638 0-189.44-84.813-189.44-189.44 0-104.606 84.802-189.425 189.44-189.425 104.606 0 189.44 84.818 189.44 189.424 0 104.627-84.834 189.44-189.44 189.44zM-9591.066-299.474c24.478 0 44.324-19.84 44.324-44.313 0-24.463-19.845-44.318-44.324-44.318-24.463 0-44.308 19.85-44.308 44.318 0.025 24.489 19.861 44.313 44.308 44.313zM-9528.832-481.337h-124.411c-9.682 0-13.84 3-13.84 9.974l14.889 68.403c1.479 6.764 4.147 9.958 13.824 9.958h28.386l11.96-29.778c3.256-8.601 10.21-8.601 13.911 0l11.991 29.778h28.386c9.666 0 12.298-3.308 13.824-9.958l14.889-68.403c0.015-6.973-4.117-9.974-13.808-9.974zM-9481.723-347.643c0-2.319-1.019-3.21-3.344-3.21h-18.263v-18.11c0-2.197-0.916-3.21-3.226-3.21v0h-7.547c-2.222 0-2.975 1.014-2.975 3.21v18.125h-18.247c-2.222 0-3.226 0.896-3.226 3.2v7.577c0 2.324 1.008 3.092 3.226 3.092h18.247v18.263c0 2.288 0.753 3.338 2.975 3.338h7.547c2.309 0 3.226-1.034 3.226-3.338v-18.263h18.263c2.309 0 3.344-0.768 3.344-3.092v-7.582zM-8814.694-229.11l-203.674-236.697-97.357 85.611-33.715-47.212 144.051-124.283 234.829 284.948zM-8282.455-264.105h-126.295c-69.647 0-126.295-56.653-126.295-126.295 0-69.648 56.647-126.295 126.295-126.295h126.295c69.653 0 126.295 56.643 126.295 126.295 0 69.642-56.642 126.295-126.295 126.295zM-8408.745-295.639h15.846v-78.996h-109.184c7.557 44.769 46.469 78.996 93.337 78.996zM-8502.087-406.159h109.184v-79.006h-15.846c-46.863 0.005-85.775 34.247-93.337 79.006zM-8282.455-485.161h-78.935v189.527h78.935c52.265 0 94.766-42.506 94.766-94.761 0-52.27-42.501-94.766-94.766-94.766zM-7581.476-204.8c-16.087 7.813-28.027 3.707-35.84-12.416l-129.101-267.909-107.515 98.11c-13.333 11.94-25.958 11.274-37.929-2.038l-8.919-9.984c-11.971-13.322-11.289-25.968 2.028-37.898l147.507-134.574c7.485-6.717 14.74-9.298 21.806-8.007 0.64 0.046 1.249 0.23 1.864 0.318 0.199 0.066 0.364 0.066 0.558 0.128 7.081 1.428 12.903 6.564 17.331 15.682l152.714 316.871c7.833 16.102 3.681 28.048-12.406 35.856l-12.099 5.862zM-7287.28-294.492h340.956c12.641 0 18.965 6.318 18.965 18.96v33.188c0.005 12.631-6.302 17.378-18.954 17.378h-340.966c-14.213 0-18.959-4.741-18.959-17.388v-33.188c0-12.631 4.746-18.949 18.959-18.949zM-7287.28-425.159h340.956c12.641 0 18.965 6.313 18.965 18.954v33.193c0 12.631-6.323 17.383-18.965 17.383h-340.956c-14.213-0.010-18.959-4.761-18.959-17.393v-33.203c0-12.601 4.746-18.934 18.959-18.934zM-7287.28-555.832h340.956c12.641 0 18.965 6.303 18.965 18.949v33.198c0 12.626-6.323 17.388-18.965 17.388h-340.956c-14.213-0.005-18.959-4.746-18.959-17.372v-33.198c0-12.626 4.746-18.965 18.959-18.965zM-6673.766-286.059l-13.886-13.972c-5.248-5.304-5.918-9.953 0-15.943l177.147-178.35c0.020 0 0.056-0.015 0.056-0.036l0.614-0.635c5.284-5.304 9.922-4.649 15.207 0.67l12.825 12.948 1.024 1.004 163.266 164.393c5.939 5.99 5.954 9.979 0.671 15.283l-13.901 13.962c-5.248 5.304-9.902 5.99-15.821 0l-156.011-157.066-156.027 157.066c-5.934 6-9.897 6-15.166 0.676zM-10126.188-815.36h-125.194c-34.796 0-53.192-18.396-53.192-53.207v-272.486c0-34.791 18.396-53.191 53.192-53.191h125.194c34.78 0 53.161 18.396 53.161 53.191v272.486c0 34.811-18.381 53.207-53.161 53.207zM-10188.795-1156.797c-9.605 0-17.403 7.787-17.403 17.388 0 9.62 7.798 17.388 17.403 17.388 9.621 0 17.403-7.787 17.403-17.388s-7.798-17.388-17.403-17.388zM-10104.729-1094.134h-168.115v225.566c0 17.454 4.014 21.474 21.474 21.474h125.194c17.433 0 21.448-4.019 21.448-21.474v-225.566zM-9574.134-932.465c-34.811 0-44.759-14.576-44.759-31.176v-20.034h-8.11c-2.631 0-3.845-1.014-3.845-3.64v-5.059c0-2.836 1.213-3.835 3.845-3.835h8.11v-13.563h-8.11c-2.631 0-3.845-1.014-3.845-3.64v-5.063c0-2.841 1.213-3.861 3.845-3.861h8.11v-19.835c0-16.62 9.917-31.181 44.728-31.181 34.836 0 44.738 14.562 44.738 31.181v12.759c0 2.637-0.994 3.845-3.625 3.845h-11.751c-2.842 0-3.835-1.214-3.835-3.845v-9.518c0-10.951-7.091-17.608-25.324-17.608-18.207 0-25.103 6.661-25.103 17.608v16.594h26.731c2.637 0 3.845 1.019 3.845 3.861v5.033c0 2.642-1.213 3.656-3.845 3.656h-26.731v13.563h26.731c2.637 0 3.845 1.014 3.845 3.835v5.063c0 2.627-1.213 3.64-3.845 3.64h-26.731v16.804c0 10.947 6.897 17.628 25.103 17.628 18.233 0 25.324-6.681 25.324-17.628v-6.666c0-2.836 1.019-4.050 3.835-4.050h11.751c2.637 0 3.625 1.214 3.625 4.050v9.912c0.021 16.594-9.897 31.17-44.708 31.17zM-9574.4-815.36c-104.606 0-189.44-84.823-189.44-189.44 0-104.607 84.834-189.44 189.44-189.44s189.44 84.833 189.44 189.44c0 104.617-84.802 189.44-189.44 189.44zM-9494.805-1101.031c0-9.651-7.813-17.434-17.433-17.434h-125.681c-9.621 0-16.072 9.149-16.072 18.78v192.471c0 9.626 6.451 16.082 16.072 16.082h125.681c9.621 0 17.418-7.808 17.418-17.428v-192.466h0.015zM-8959.995-815.36c-104.617 0-189.445-84.823-189.445-189.44 0-104.607 84.828-189.44 189.445-189.44s189.435 84.833 189.435 189.44c0 104.617-84.813 189.44-189.435 189.44zM-8861.635-1012.132c0-4.388-1.971-6.088-6.334-6.088h-79.222v-78.956c0-4.147-1.715-6.098-6.159-6.098h-14.387c-4.157 0-5.627 1.95-5.627 6.098v78.956h-78.909c-4.142 0-6.098 1.705-6.098 6.088v14.423c0 4.378 1.956 5.852 6.098 5.852h78.925v79.201c0 4.398 1.479 6.37 5.642 6.37h14.387c4.408 0 6.129-1.966 6.129-6.37v-79.216h79.253c4.336 0 6.334-1.475 6.334-5.852l-0.031-14.408zM-8345.59-815.36c-104.622-0.021-189.44-84.839-189.45-189.46 0.010-104.617 84.828-189.43 189.45-189.419 104.642-0.010 189.43 84.803 189.43 189.419 0.016 104.622-84.792 189.44-189.43 189.46zM-8345.59-1152.205c-81.403-0.010-147.405 65.997-147.405 147.41 0 81.388 66.012 147.399 147.405 147.389 81.388-0.010 147.379-66.012 147.369-147.405 0.015-81.378-65.992-147.384-147.369-147.395zM-8419.825-958.602h-28.529c-2.452 0-3.262-1.081-3.262-3.527v-85.34c0-2.447 0.809-3.538 3.262-3.538h11.812c2.452 0 3.262 1.095 3.262 3.538v29.215h13.456c24.602 0 32.896 10.732 32.896 22.154v15.355c0 11.422-8.29 22.144-32.896 22.144zM-8405.14-992.978c0-6.666-5.57-10.051-14.679-10.051h-13.456v29.209h13.456c9.113 0 14.679-3.395 14.679-10.194v-8.965zM-8343.291-958.602h-29.629c-2.437 0-3.246-1.081-3.246-3.527v-85.34c0-2.314 0.676-3.538 2.852-3.538h30.034c24.596 0 33.157 10.736 33.157 22.149v48.108c-0.005 11.428-8.566 22.149-33.167 22.149zM-8328.478-1025.598c0-6.789-5.57-10.199-14.817-10.199h-14.535v61.973h14.535c9.246 0 14.817-3.395 14.817-10.194v-41.58zM-8292.726-958.602c-2.452 0-3.256-1.081-3.256-3.527v-85.34c0-2.447 0.804-3.538 3.256-3.538h11.822c2.452 0 3.266 1.095 3.266 3.538v36.291h32.338c2.452 0 3.405 0.947 3.405 3.395v8.688c0 2.453-0.958 3.256-3.405 3.256h-32.338v22.016h34.657c2.314 0 3.41 0.957 3.41 3.405v8.561c0 2.442-1.095 3.256-3.41 3.256h-49.746zM-7707.198-1194.24c15.396 0 21.443 6.851 21.443 21.432v120.889h121.758c15.381 0 22.231 5.991 22.231 21.401v50.606c0 15.401-6.85 20.521-22.231 20.521h-121.758v121.723c0 15.411-6.052 22.308-21.443 22.308h-50.539c-14.623 0-19.789-6.897-19.789-22.308v-121.723h-121.703c-14.577 0-21.417-5.136-21.417-20.521v-50.606c0-15.421 6.841-21.401 21.417-21.401h121.728v-120.889c0-14.576 5.136-21.432 19.774-21.432h50.529zM-1419.991 176.875c15.38 0 22.231 5.99 22.231 21.401v50.606c0 15.401-6.851 20.521-22.231 20.521h-335.237c-14.576 0-21.417-5.135-21.417-20.521v-50.606c0-15.421 6.841-21.401 21.417-21.401h335.237zM-7116.8-815.36c-104.606 0-189.44-84.813-189.44-189.44 0-104.607 84.833-189.44 189.44-189.44s189.44 84.833 189.44 189.44c0 104.627-84.833 189.44-189.44 189.44zM-7106.35-1128.084c0-4.869-1.735-6.6-6.277-6.6h-21.611c-4.501 0-6.247 1.715-6.247 6.6v27.883c0 4.511 1.73 6.63 6.247 6.63h21.611c4.542 0 6.277-2.12 6.277-6.63v-27.883zM-7040.845-970.66c0-29.962-18.114-43.203-30.31-49.091l-19.169-9.072c-8.699-4.158-16.025-9.385-16.025-22.277v-17.418c0-4.869-1.735-6.615-6.277-6.615h-21.611c-4.501 0-6.247 1.715-6.247 6.615v25.784c0 20.204 13.23 27.842 22.292 32.369l27.863 14.285c5.581 3.139 15.677 9.754 15.677 24.381v17.762c0 19.159-11.853 30.295-42.506 30.295-30.992 0-42.506-11.136-42.506-30.295v-14.971c0-4.884-1.746-6.953-6.277-6.953h-20.173c-4.869 0-6.615 2.084-6.615 6.953v20.204c0 28.564 17.403 53.637 75.571 53.637s75.925-25.072 76.309-53.637v-21.955zM-6349.778-888.627h-0.922c-25.779 0-36.849-11.116-36.849-36.807v-35.727c-1.659-0.031-3.292-0.072-5.064-0.072h-2.365v52.372c0 25.738-11.069 36.823-36.823 36.823h-0.947c-25.784 0-36.854-11.070-36.854-36.823v-52.362h-7.429v68.731c0 25.754-11.1 36.854-36.818 36.854h-0.947c-25.815 0-36.885-11.070-36.885-36.854v-68.762h-7.49v85.187c0 25.692-11.038 36.839-36.792 36.839h-0.922c-25.81 0-36.88-11.131-36.88-36.823v-159.764h-3.435l-0.030-0.947v0.947h-4.142v123.535c-0.061 0.062-0.118 0.313-0.118 0.415 0 1.552-1.244 2.811-2.785 2.811-0.973 0-1.833-0.563-2.334-1.331v0l-39.106-53.294v-0.282c-3.783-4.839-6.123-10.834-6.123-17.465v-86.82h0.092c0.235-6.216 2.483-11.883 6.093-16.486l36.025-68.347c0.589-0.901 1.182-1.792 1.833-2.647l0.205-0.282c6.543-8.464 16.609-13.927 28.007-14.295v-0.077h233.395c33.654 0 50.468 13.942 54.313 45.599 12.994 4.618 18.913 15.493 18.913 34.156v165.197c0.005 25.671-11.033 36.803-36.813 36.803zM-10188.8-1429.76c-104.612 0-189.44-84.828-189.44-189.44 0-104.612 84.828-189.44 189.44-189.44s189.44 84.828 189.44 189.44c0 104.612-84.828 189.44-189.44 189.44zM-10102.093-1658.481c0-8.525-2.724-13.527-8.674-15.631-1.705-14.485-9.442-20.864-24.832-20.864l-106.85 0.030c-5.212 0.174-9.826 2.693-12.8 6.538v0l-0.103 0.118c-0.297 0.369-0.563 0.814-0.829 1.209l-16.502 31.247c-1.644 2.146-2.678 4.72-2.78 7.552h-0.046v39.736c0 3.026 1.065 5.776 2.796 7.987v0.153l17.895 24.397c0.236 0.348 0.624 0.61 1.065 0.61 0.711 0 1.275-0.579 1.275-1.275 0-0.046 0.031-0.153 0.046-0.184v-56.546h1.895v-0.369l0.015 0.369h1.582v73.134c0 11.755 5.064 16.85 16.855 16.85h0.43c11.797 0 16.84-5.090 16.84-16.85v-38.999h3.42v31.478c0 11.786 5.058 16.86 16.886 16.86h0.43c11.781 0 16.871-5.079 16.871-16.86v-31.468h3.431v23.956c0 11.776 5.064 16.855 16.845 16.855h0.399c11.781 0 16.871-5.079 16.871-16.855v-23.972h1.049c0.845 0 1.572 0.015 2.279 0.026v16.354c0 11.76 5.090 16.85 16.871 16.85h0.384c11.797 0 16.855-5.090 16.855-16.834v-75.607h0.133zM-9505.331-1604.311v26.896c0.010 21.335-16.994 38.723-38.159 39.449v43.51c0 26.921-14.827 41.748-41.733 41.748h-98.713c-26.91 0-41.728-14.832-41.728-41.754v-43.515c-21.171-0.701-38.169-18.104-38.169-39.44v-147.374c0-21.801 17.72-39.511 39.506-39.511h168.003c-11.111 17.008-17.593 37.33-17.593 59.172 0 45.788 28.432 84.941 68.587 100.818zM-9600.829-1716.798h-67.492l14.7 59.1c-11.351 6.579-19.001 18.852-19.001 32.901 0 21.023 17.044 38.052 38.041 38.052 21.028 0 38.062-17.029 38.062-38.052 0-14.070-7.649-26.332-19.021-32.912l14.71-59.090zM-9574.969-1537.889h-119.229v43.433c0 9.497 0.758 10.276 10.255 10.276h98.719c9.493 0 10.255-0.773 10.255-10.265v-43.443zM-9465.641-1665.782c-19.093 0-24.811-8.238-24.811-17.613v-6.635c-0.005-1.597 0.568-2.289 2.166-2.289h6.646c1.479 0 2.048 0.702 2.048 2.289v4.921c0 6.298 3.769 9.948 13.952 9.948 10.071 0 13.962-3.661 13.962-9.948v-5.822c0-4.807-3.318-6.979-5.156-8.003l-9.145-4.706c-2.969-1.479-7.322-3.988-7.322-10.619v-8.458c0-1.608 0.568-2.171 2.048-2.171h7.102c1.479 0 2.058 0.558 2.058 2.171v5.709c0 4.24 2.401 5.959 5.253 7.342l6.292 2.965c4.004 1.936 9.953 6.293 9.953 16.123v7.184c-0.118 9.374-5.944 17.613-25.047 17.613zM-9464.151-1730.97h-7.102c-1.479 0-2.048-0.691-2.048-2.171v-9.149c0-1.597 0.568-2.16 2.048-2.16h7.102c1.479 0 2.058 0.558 2.058 2.16v9.149c0.005 1.479-0.578 2.171-2.058 2.171zM-9465.529-1624.566c-44.493 0-80.563-36.075-80.563-80.563 0-44.493 36.070-80.558 80.563-80.558 44.498 0 80.568 36.066 80.568 80.558 0 44.488-36.070 80.563-80.568 80.563zM-9465.529-1762.468c-31.662 0-57.349 25.682-57.349 57.339 0 31.688 25.687 57.339 57.349 57.339 31.677 0 57.349-25.651 57.349-57.339 0-31.662-25.672-57.339-57.349-57.339zM-8849.234-1533.435v52.905c0 32.737-18.028 50.77-50.749 50.77h-120.028c-32.727 0-50.745-18.027-50.745-50.77v-52.91c-25.733-0.86-46.403-22.021-46.403-47.959v-179.184c0-26.521 21.55-48.061 48.041-48.061h218.235c26.501 0 48.046 21.55 48.046 48.061v179.184c0.010 25.943-20.669 47.089-46.397 47.964zM-8918.958-1750.881h-82.068l17.879 71.869c-13.803 7.997-23.096 22.907-23.096 40.008 0 25.549 20.72 46.259 46.264 46.259 25.564 0 46.27-20.711 46.27-46.259 0-17.122-9.298-32.021-23.112-40.023l17.863-71.854zM-8887.506-1533.332h-144.978v52.803c0 11.556 0.922 12.493 12.472 12.493h120.028c11.546 0 12.472-0.937 12.472-12.487l0.005-52.807zM-8236.191-1433.831c-42.219 12.524-86.21-4.756-109.409-39.629-23.199 34.872-67.174 52.162-109.43 39.629-51.855-15.36-81.433-69.903-66.043-121.784 2.094-7.030 4.941-13.634 8.381-19.794 1.766-3.415 3.717-6.733 5.826-9.789l148.828-214.303c3.431-5.104 6.958-8.008 10.122-8.847 0.112-0.057 0.184-0.077 0.24-0.077 0.317-0.092 0.63-0.108 0.916-0.164 0.266-0.036 0.542-0.057 0.804-0.057 0.256 0 0.532 0.021 0.783 0.057 0.287 0.057 0.604 0.077 0.916 0.164 0 0 0.148 0.021 0.24 0.097 3.164 0.829 6.676 3.733 10.096 8.827l145.495 209.495c8.141 9.84 14.428 21.422 18.283 34.411 15.401 51.861-14.198 106.404-66.053 121.764zM-7920.64-1619.2c0-104.606 84.833-189.44 189.44-189.44s189.44 84.834 189.44 189.44c0 104.627-84.833 189.44-189.44 189.44s-189.44-84.813-189.44-189.44zM-7727.334-1522.888l0.313-0.302c0.030-0.031 0.030-0.031 0.030-0.031l92.114-92.119c3.077-3.093 2.749-5.488 0-8.213l-7.239-7.224c-2.718-2.749-4.782-2.749-7.885 0.338l-70.835 70.841v-152.167c0-4.26-1.895-5.678-5.653-5.678h-9.917c-3.774 0-5.181 1.418-5.181 5.678v151.997l-70.656-70.656c-3.092-3.077-5.489-2.749-8.228 0l-7.219 7.224c-2.739 2.739-2.739 4.782 0.323 7.874l92.119 92.114c2.76 2.765 5.176 3.082 7.916 0.322zM-6944.583-1598.587l-1.014 1.008c0 0 0 0 0 0.005l-163.727 163.266c-5.965 5.939-9.933 5.949-15.227 0.67l-13.895-13.88c-5.299-5.268-5.954-9.902 0-15.836l136.243-135.874h-293.12c-8.192 0-10.921-2.724-10.921-9.984v-19.072c0-7.255 2.729-10.89 10.916-10.89h293.463l-136.586-136.213c-5.954-5.934-5.954-9.902-0.666-15.175l13.901-13.87c5.294-5.278 9.927-5.939 15.892 0l164.393 163.932c0 0.005 0 0.005 0 0.005l0.962 0.963 12.278 12.242c0.010 0.015 0.020 0.026 0.030 0.041l0.635 0.635c5.289 5.273 4.628 9.892-0.666 15.181l-12.892 12.846zM-6502.4-1429.76c-104.606 0-189.44-84.823-189.44-189.44 0-104.606 84.833-189.44 189.44-189.44 104.637 0 189.44 84.834 189.44 189.44 0 104.617-84.802 189.44-189.44 189.44zM-6406.083-1623.061l-0.313-0.318c-0.030-0.015-0.030-0.015-0.030-0.015l-92.114-92.124c-3.092-3.077-5.494-2.749-8.212 0l-7.225 7.24c-2.718 2.718-2.718 4.782 0.354 7.885l70.835 70.835h-152.176c-4.26 0-5.678 1.894-5.678 5.657v9.912c0 3.773 1.418 5.186 5.678 5.186h151.998l-70.656 70.656c-3.077 3.088-2.734 5.484 0 8.228l7.225 7.214c2.734 2.739 4.782 2.739 7.874-0.333l92.114-92.099c2.755-2.78 3.082-5.191 0.328-7.926zM-10188.8-2044.16c-104.606 0-189.44-84.802-189.44-189.44 0-104.606 84.834-189.44 189.44-189.44s189.44 84.834 189.44 189.44c0 104.637-84.834 189.44-189.44 189.44zM-10188.816-2358.482c-60.002 0-108.826 48.865-108.826 108.867 0 16.957 3.891 33.034 10.834 47.329l0.148 0.354c1.567 3.686 3.733 3.912 7.193 2.575l9.442-3.64c3.568-1.362 4.587-2.765 3.036-6.805l-0.266-0.624c-5.996-11.827-9.37-25.026-9.37-39.158 0-48.425 39.398-87.818 87.808-87.818s87.824 39.394 87.824 87.818c0 41.84-29.409 76.928-68.659 85.693v-31.749c0-5.248-4.603-5.622-8.049-2.622l-47.985 38.615c-3.169 2.622-3.169 7.859 0 10.496l47.985 38.61c3.477 2.622 8.049 3.006 8.049-2.258v-29.66c50.928-9.104 89.692-53.637 89.692-107.126 0-60.057-48.84-108.898-108.856-108.898zM-9425.244-2400.271h-209.055l0.481 17.828c0.24 9.528 0.144 96.957 0.031 174.101-0.067 60.903-0.144 113.521-0.031 123.418l0.179 17.173h208.379c22.252 0 40.305-18.104 40.305-40.336v-251.827c0.010-22.256-18.043-40.356-40.29-40.356zM-9598.981-2365.543h173.717c3.108 0 5.606 2.478 5.606 5.637v251.827c0 3.093-2.483 5.622-5.606 5.622h-173.875c-0.015-22.758 0.015-63.447 0.082-105.831 0.077-62.413 0.174-126.439 0.077-157.256zM-9440.768-2121.278c4.613 0 6.902-1.7 6.902-6.282v-38.907c0-4.588-2.289-6.876-6.902-6.876h-137.723c-5.176 0-6.871 2.289-6.871 6.876v38.907c0 4.582 1.7 6.282 6.871 6.282h137.723zM-9561.815-2204.206c9.917 0 17.956-8.044 17.956-17.941 0-9.918-8.043-17.961-17.956-17.961-9.902 0-17.941 8.044-17.941 17.961 0 9.897 8.039 17.941 17.941 17.941zM-9509.596-2204.191c9.917 0 17.956-8.039 17.956-17.956 0-9.933-8.039-17.977-17.956-17.977-9.933 0-17.971 8.039-17.971 17.977-0.005 9.918 8.039 17.956 17.971 17.956zM-9457.392-2204.206c9.917 0 17.941-8.044 17.941-17.941 0-9.918-8.023-17.961-17.941-17.961s-17.941 8.044-17.941 17.961c0 9.897 8.023 17.941 17.941 17.941zM-9561.815-2254.055c9.917 0 17.956-8.039 17.956-17.941 0-9.918-8.043-17.956-17.956-17.956-9.902 0-17.941 8.039-17.941 17.956 0 9.902 8.039 17.941 17.941 17.941zM-9509.596-2254.039c9.917 0 17.956-8.039 17.956-17.956 0-9.927-8.039-17.977-17.956-17.977-9.933 0-17.971 8.044-17.971 17.977-0.005 9.918 8.039 17.956 17.971 17.956zM-9439.447-2272c0-9.911-8.034-17.945-17.945-17.945s-17.945 8.035-17.945 17.945c0 9.911 8.034 17.945 17.945 17.945 9.911 0 17.945-8.035 17.945-17.945zM-9561.815-2303.934c9.917 0 17.956-8.039 17.956-17.941 0-9.918-8.043-17.961-17.956-17.961-9.902 0-17.941 8.044-17.941 17.961 0 9.897 8.039 17.941 17.941 17.941zM-9509.596-2303.918c9.917 0 17.956-8.039 17.956-17.956 0-9.933-8.039-17.977-17.956-17.977-9.933 0-17.971 8.039-17.971 17.977-0.005 9.912 8.039 17.956 17.971 17.956zM-9439.442-2321.884c0-9.914-8.037-17.95-17.951-17.95s-17.951 8.037-17.951 17.95c0 9.914 8.037 17.95 17.951 17.95 9.914 0 17.951-8.037 17.951-17.95zM-9763.84-2136.863c0 40.924 4.066 69.934 91.786 69.934h3.927c5.238 0 7.849-1.715 7.849-6.84v-85.186c0-4.552-2.611-6.809-7.849-6.809l-3.927-0.030c-33.449 0-34.12-19.287-34.12-47.155v-39.629c0-27.843 1.987-47.175 34.12-47.175l3.927 0.015c5.238 0 7.849-2.273 7.849-6.84v-86.318c0-5.125-2.611-6.84-7.849-6.84l-3.927 0.015c-87.716 0-91.786 28.994-91.786 69.883v192.978zM-8783.8-2182.113l-118.825 9.912-45.865 109.256c-5.161 13.086-16.226 13.086-22.139 0l-45.824-109.168-119.921-10.025c-14.034-0.865-17.465-11.402-6.845-21.059l91.121-78.561-27.136-115.512c-3.517-13.63 5.438-20.137 17.91-13.020l101.893 61.788 102.902-62.382c11.879-7.557 20.834-1.055 17.92 13.015l-27.664 117.657 89.334 77.035c10.834 8.96 7.429 19.497-6.861 21.064zM-8187.044-2081.936h-317.133c-17.049 0-30.863-13.834-30.863-30.878v-188.544c0-17.065 13.819-30.878 30.863-30.878h91.254v-21.059h-54.298v-31.964h243.241v31.964h-58.552v21.059h95.498c17.065 0 30.868 13.814 30.868 30.878v188.544c-0.010 17.044-13.814 30.878-30.878 30.878zM-8187.402-2296.325h-316.406v177.762h316.406v-177.762zM-7835.428-2423.040h208.456c21.335 0 27.203 9.774 30.48 30.474l32.804 209.173c0 21.32-9.139 30.464-30.474 30.464h-20.551l-9.159 86.256c-2.078 15.785-6.753 22.508-22.512 22.508h-169.636c-15.754 0-20.587-6.287-22.507-22.508l-9.154-86.256h-20.547c-21.33 0-30.474-9.144-30.474-30.464l32.804-209.173c3.42-20.342 9.145-30.474 30.474-30.474zM-7806.249-2082.606c0 6.533 2.801 9.344 9.328 9.344h131.42c6.538 0 9.339-2.811 9.339-9.344v-60.964c0-6.544-2.801-9.344-9.339-9.344h-131.405c-6.538 0-9.339 2.8-9.339 9.344l-0.005 60.964zM-7029.54-2184.279l29.317-3.19-3.2 29.235c-0.302 3.195 2.601 6.082 5.801 5.791l29.307-3.184-3.19 29.251c-0.307 3.175 2.596 6.073 5.796 5.776l29.337-3.19c12.176 12.514 12.027 25.021-0.517 37.535l-33.387 33.331c-12.739 12.698-23.88 11.115-36.598-1.582l-110.387-110.126c-49.403 21.427-109.025 12.027-149.407-28.278-52.766-52.654-52.766-137.999 0-190.638 52.761-52.644 138.291-52.644 191.047 0 40.391 40.305 49.823 99.784 28.339 149.084l15.145 15.104-3.205 29.307c-0.297 3.175 2.606 6.062 5.801 5.776zM-7114.675-2304.133h-41.124v-40.74c0-4.905-2.038-7.224-7.23-7.224h-17.081c-4.951 0-6.681 2.32-6.681 7.224v40.74h-41.124c-4.915 0-7.23 2.012-7.23 7.229v17.039c0 5.197 2.314 6.922 7.23 6.922h41.124v41.042c0 5.197 1.73 7.511 6.681 7.511h17.081c5.191 0 7.23-2.325 7.23-7.511v-41.042h41.124c5.197 0 7.521-1.735 7.521-6.922v-17.039c-0.010-5.222-2.329-7.229-7.521-7.229zM-6584.341-2167.573h158.976c10.082 0 9.369 8.822 4.337 15.468l-74.137 103.388c-5.095 6.073-15.099 6.073-20.132 0l-74.102-103.388c-5.73-6.646-5.007-15.468 5.059-15.468zM-6348.739-2255.616c7.27 0 10.568 2.903 10.568 10.184v24.039c0 7.311-3.302 9.785-10.568 9.785l-307.727 0.015c-6.943 0-10.168-2.473-10.168-9.769v-24.069c0-7.265 3.225-10.184 10.168-10.184h307.727zM-6426.107-2299.633h-158.976c-10.082 0-9.349-8.822-4.352-15.478l74.132-103.347c5.059-6.098 15.094-6.098 20.132 0l74.112 103.347c5.744 6.656 5.033 15.478-5.048 15.478zM-10188.784-2658.56c-104.632 0-189.456-84.834-189.456-189.44 0-104.637 84.823-189.44 189.456-189.44 104.622 0 189.424 84.802 189.424 189.44 0 104.606-84.802 189.44-189.424 189.44zM-10230.549-2808.883l35.564 49.623c2.412 2.914 7.229 2.914 9.656 0l35.589-49.623c2.412-3.18 2.754-7.429-2.089-7.429h-76.298c-4.834-0.005-5.182 4.249-2.422 7.429zM-10149.76-2887.132l-35.574-49.608c-2.412-2.898-7.229-2.898-9.656 0l-35.579 49.608c-2.412 3.195-2.76 7.429 2.084 7.429h76.293c4.834 0.005 5.186-4.234 2.432-7.429zM-10109.972-2853.683c0-3.492-1.572-4.88-5.079-4.88h-147.686c-3.338 0-4.885 1.387-4.885 4.88v11.546c0 3.512 1.561 4.706 4.885 4.706l147.686-0.026c3.481 0 5.079-1.173 5.079-4.695v-11.53zM-9452.846-2732.001l-87.102 70.021c-6.252 5.438-14.602 4.772-14.602-4.751v-39.721c-29.291-1.101-55.199-5.422-77.287-13.404-25.006-8.99-45.645-21.207-61.993-36.552-12.938-12.186-23.142-26.066-30.802-41.492-2.022-4.086-3.984-8.141-5.632-12.436-7.961-20.51-13.542-42.829-11.914-65.726 0.389-5.657 3.522-22.559 7.168-22.559 0 0 4.531 23.66 22.891 50.76 5.632 8.284 12.185 16.108 19.743 23.337 0 0 10.522 9.452 16.19 13.271 15.283 10.358 33.987 18.581 56.105 24.658 18.114 4.951 38.758 7.834 61.599 8.914h3.942v-39.311c0-9.518 8.351-8.827 14.602-4.111l87.117 70.037c5.699 4.798 5.699 14.32-0.025 19.067zM-9695.939-2964.009l87.106-70.021c6.262-5.438 14.587-4.756 14.587 4.767v39.675c29.287 1.106 55.189 5.412 77.271 13.41 25.011 8.981 45.665 21.202 61.998 36.588 12.943 12.16 23.158 26.050 30.787 41.492 2.022 4.070 3.978 8.115 5.632 12.406 7.957 20.51 13.548 42.829 11.924 65.741-0.369 5.648-3.522 22.544-7.168 22.544 0 0-4.516-23.66-22.855-50.76-5.632-8.269-12.185-16.097-19.758-23.316 0 0-10.516-9.441-16.164-13.276-15.324-10.347-33.992-18.565-56.13-24.642-18.12-4.925-38.758-7.838-61.599-8.889h-3.938v39.311c0 9.503-8.335 8.802-14.587 4.086l-87.106-70.046c-5.724-4.772-5.724-14.326 0-19.067zM-8960-2658.56c-104.627 0-189.44-84.834-189.44-189.44s84.813-189.44 189.44-189.44c104.606 0 189.44 84.834 189.44 189.44s-84.834 189.44-189.44 189.44zM-9043.522-2874.317c-1.895 0-3.517 8.791-3.722 11.72-0.855 11.914 2.043 23.521 6.19 34.191 0.865 2.222 1.879 4.352 2.928 6.456 3.984 8.018 9.288 15.242 16.015 21.575 8.504 7.982 19.23 14.331 32.23 19.006 11.495 4.147 24.96 6.395 40.176 6.953v20.69c0 4.93 4.336 5.299 7.609 2.457l45.287-36.409c2.975-2.483 2.975-7.429 0-9.902l-45.287-36.423c-3.256-2.452-7.577-2.811-7.577 2.13v20.454h-2.058c-11.879-0.558-22.61-2.068-32.036-4.644-11.504-3.139-21.218-7.429-29.179-12.82-2.939-1.981-8.423-6.896-8.423-6.896-3.932-3.758-7.342-7.829-10.265-12.135-9.523-14.085-11.888-26.404-11.888-26.404zM-8878.956-2867.594c-0.871-2.222-1.895-4.352-2.928-6.456-3.968-8.034-9.278-15.242-16.015-21.575-8.51-7.997-19.241-14.356-32.23-19.036-11.499-4.147-24.955-6.395-40.192-6.953v-20.659c0-4.946-4.332-5.299-7.577-2.457l-45.297 36.409c-2.99 2.483-2.99 7.429 0 9.902l45.297 36.423c3.246 2.452 7.577 2.811 7.577-2.13v-20.439h2.048c11.879 0.532 22.6 2.053 32.010 4.628 11.515 3.169 21.207 7.414 29.184 12.82 2.928 1.981 8.407 6.896 8.407 6.896 3.938 3.758 7.342 7.829 10.271 12.119 9.559 14.090 11.899 26.389 11.899 26.389 1.895 0 3.522-8.791 3.728-11.704 0.865-11.914-2.064-23.521-6.18-34.176zM-8191.79-2662.677l-5.115 2.483c-6.825 3.313-11.894 1.566-15.211-5.264l-161.275-332.032-109.445 98.34c-5.647 5.069-11.003 4.782-16.072-0.865l-3.794-4.229c-5.069-5.653-4.787-11.003 0.865-16.077l126.418-113.597c3.169-2.847 6.252-3.938 9.242-3.399 0.292 0.021 0.568 0.097 0.85 0.148 0.057 0.021 0.118 0.021 0.184 0.041 3.011 0.61 5.474 2.791 7.358 6.661l171.264 352.579c3.313 6.835 1.556 11.904-5.269 15.211zM-7711.242-2848l165.479 165.483c5.325 5.32 5.325 10.644 0 15.97l-3.984 3.983c-5.325 5.325-10.645 5.325-15.975 0l-165.479-165.483-165.489 165.488c-5.319 5.325-10.645 5.325-15.97 0.005l-3.984-3.988c-5.325-5.325-5.325-10.649 0-15.974l165.489-165.483-165.494-165.488c-5.315-5.32-5.319-10.644 0-15.97l3.993-3.988c5.319-5.32 10.645-5.314 15.964 0l165.489 165.488 165.484-165.483c5.325-5.32 10.65-5.325 15.975 0l3.984 3.983c5.325 5.325 5.319 10.649 0 15.974l-165.484 165.483zM-7173.048-2925.179c29.394 0 56.56 9.549 78.577 25.707l133.893-134.006c5.258-5.278 10.516-5.278 15.775-0.010l13.814 13.819c5.253 5.248 4.592 9.872-0.66 15.14l-133.888 134.001c16.113 22.057 25.662 49.218 25.662 78.653 0.005 73.61-59.607 133.294-133.166 133.314-73.554-0.021-133.186-59.704-133.197-133.314 0.010-73.615 59.638-133.32 133.191-133.305zM-7173.048-2695.869c52.982 0 95.934-42.992 95.918-96.005 0.005-53.008-42.952-95.995-95.918-96.026-52.976-0.010-95.928 42.988-95.928 96.036-0.010 53.008 42.957 96.005 95.928 95.995zM-6629.765-2874.173l-31.022-142.505c0-14.526 8.642-20.762 28.82-20.762h259.139c20.178 0 28.815 6.236 28.815 20.762l-31.022 142.505c-3.221 13.87-8.642 20.762-28.815 20.762h-59.11l-24.95-62.034c-7.736-17.92-22.231-17.92-28.989-0.005l-24.944 62.039h-59.105c-20.173-0.005-25.733-6.656-28.815-20.762zM-6410.071-2750.884c0 51.001-41.369 92.324-92.329 92.324-50.995 0-92.298-41.323-92.298-92.324 0-50.959 41.303-92.309 92.298-92.309 50.959-0.005 92.329 41.36 92.329 92.309zM-5801.006 380.185l-124.411-156.022 124.411-156.017c5.939-5.939 5.284-10.558 0-15.831l-13.881-13.88c-5.279-5.284-9.242-5.269-15.176 0.671l-145.541 177.126c-4.962 6.082-5.284 9.493-0.666 15.196l146.207 177.797c5.949 5.945 10.568 5.284 15.842 0l13.881-13.865c5.274-5.278 5.274-9.241-0.666-15.175zM-5360.594 380.185l124.411-156.022-124.411-156.017c-5.939-5.939-5.284-10.558 0-15.831l13.881-13.88c5.279-5.284 9.242-5.269 15.176 0.671l145.541 177.126c4.962 6.082 5.284 9.493 0.666 15.196l-146.207 177.797c-5.949 5.945-10.568 5.284-15.842 0l-13.881-13.865c-5.274-5.278-5.274-9.241 0.666-15.175zM-4626.334 67.804l-124.406 156.042 124.406 155.996c5.934 5.939 5.305 10.563 0 15.831l-13.87 13.891c-5.253 5.278-9.247 5.278-15.166-0.671l-145.582-177.132c-4.9-6.077-5.258-9.457-0.64-15.186l146.191-177.792c5.949-5.95 10.547-5.289 15.892 0l13.855 13.86c5.243 5.279 5.243 9.226-0.681 15.161zM-4518.087 67.804l-124.391 156.042 124.391 155.996c5.949 5.939 5.319 10.563 0 15.831l-13.86 13.891c-5.253 5.278-9.247 5.278-15.171-0.671l-145.572-177.132c-4.91-6.077-5.269-9.457-0.64-15.186l146.191-177.792c5.944-5.95 10.542-5.289 15.882 0l13.86 13.86c5.248 5.279 5.248 9.226-0.691 15.161zM-4078.346 52.644l13.854-13.86c5.345-5.289 9.938-5.95 15.892 0l146.191 177.792c4.618 5.729 4.26 9.108-0.64 15.186l-145.582 177.131c-5.919 5.95-9.912 5.95-15.166 0.671l-13.87-13.891c-5.305-5.268-5.934-9.892 0-15.831l124.406-155.996-124.406-156.042c-5.924-5.934-5.924-9.882-0.681-15.161zM-4186.599 52.644l13.86-13.86c5.34-5.289 9.933-5.95 15.882 0l146.191 177.792c4.628 5.729 4.27 9.108-0.64 15.186l-145.572 177.131c-5.924 5.95-9.917 5.95-15.171 0.671l-13.86-13.891c-5.319-5.268-5.949-9.892 0-15.831l124.39-155.996-124.39-156.042c-5.944-5.934-5.944-9.882-0.691-15.161zM-3384.095 155.49c-27.474-11.582-42.363 2.509-59.346 22.584l-32.886 38.841c-17.689 20.88-32.865 34.939-13.026 62.817l-83.313 98.345c-49.434-53.263-30.608-81.582-1.465-115.958l160.153-189.061c29.102-34.365 53.945-57.59 114.631-17.603l-84.751 100.034zM-3475.599 295.696c4.409 4.444 9.503 9.18 15.416 14.305l3.856 3.257c5.151 4.357 5.822 8.75 2.048 13.204l-70.697 83.456c-4.255 5.012-8.222 4.516-13.358 0.169l-3.856-3.277c-5.709-4.818-10.905-9.472-15.724-13.973l82.314-97.142zM-3348.961 178.75c-5.99-5.079-11.51-9.324-16.691-12.856l83.302-98.32c5.222 4.004 10.64 8.382 16.358 13.225l3.835 3.246c5.151 4.373 6.298 8.228 2.048 13.245l-71.655 84.588c-3.763 4.439-8.213 4.51-13.348 0.164l-3.85-3.292zM-2626.611 326.646l-0.072 68.245c-0.159 13.716-8.945 19.968-17.039 19.968-3.804 0-9.544-1.31-15.37-7.639l-46.116-50.969h-177.198c-17.387 0-31.534-14.147-31.534-31.544v-44.462h-71.030c-11.294 0-20.47-9.16-20.47-20.464v-147.574c0-0.502 0.041-1.003 0.087-1.495l0.066-68.541c0.108-9.513 6.686-12.042 13.128-5.053l49.408 54.625h182.119c11.305 0 20.454 9.165 20.454 20.47v33.377h82.115c17.387 0 31.534 14.157 31.534 31.555v147.568c0 0.666-0.030 1.296-0.082 1.936zM-2658.068 167.757h-82.11v92.037c0 11.305-9.149 20.465-20.454 20.465h-131.154v44.462c0 5.192 4.209 9.395 9.385 9.395h187.034l46.561 51.466 0.128-208.425c0-5.192-4.219-9.401-9.39-9.401zM-2019.031 381.496l-24.489 24.51c-9.323 9.324-17.485 10.481-27.996 0l-130.673-130.693-130.084 130.094c-10.496 10.501-17.5 10.501-26.823 1.157l-24.489-24.478c-9.334-9.334-10.496-17.5 0-27.986l130.094-130.094-130.524-130.514c-9.323-9.334-9.323-18.652 0-27.976l24.489-24.51c9.323-9.344 17.49-8.166 26.814 1.178l130.514 130.514 131.093-131.134c9.354-9.324 18.652-9.324 27.996 0l24.509 24.51c9.323 9.344 8.167 17.49-1.162 26.834l-131.108 131.093 130.678 130.667c10.486 10.517 10.486 17.5 1.162 26.829zM-1000.791 312.33c-33.29 0.005-60.288-26.993-60.288-60.288 0-33.305 26.993-60.308 60.288-60.303 33.29 0.015 60.293 27.018 60.288 60.293 0.015 33.296-26.987 60.298-60.288 60.298zM-962.56 247.619c0-2.621-0.471-3.138-3.082-3.138h-27.638v-27.842c0-2.483-0.886-2.877-3.502-2.877h-8.606c-2.483 0-3.256 0.394-3.256 2.877v27.843h-27.597c-2.478 0-3.123 0.517-3.123 3.138v8.612c0 2.622 0.645 3.615 3.123 3.615h27.597v27.371c0 2.622 0.768 3.349 3.256 3.349h8.606c2.616 0 3.502-0.727 3.502-3.349v-27.376h27.638c2.611 0 3.082-0.994 3.082-3.615v-8.606zM-972.8 413.44c-104.607 0-189.44-84.813-189.44-189.44 0-104.606 84.833-189.44 189.44-189.44s189.44 84.834 189.44 189.44c0 104.627-84.833 189.44-189.44 189.44zM-862.213 122.563l-8.678-8.683c-3.308-3.308-6.61-3.308-9.918 0.005l-70.59 70.589c-13.845-10.132-30.909-16.138-49.388-16.138-46.228-0.005-83.712 37.478-83.717 83.712 0.005 46.224 37.484 83.707 83.717 83.717 46.234-0.010 83.707-37.494 83.702-83.722 0-18.473-5.995-35.533-16.128-49.387l70.59-70.584c3.298-3.318 3.707-6.205 0.409-9.508zM-358.4 413.44c-104.637 0-189.44-84.839-189.44-189.44s84.803-189.44 189.44-189.44 189.44 84.839 189.44 189.44-84.803 189.44-189.44 189.44zM-358.4 138.752c-47.063 0-85.248 38.149-85.248 85.248s38.185 85.248 85.248 85.248 85.248-38.149 85.248-85.248-38.185-85.248-85.248-85.248zM256.010 413.44c-104.622 0-189.45-84.823-189.45-189.44 0-104.606 84.828-189.44 189.45-189.44 104.617 0 189.43 84.834 189.43 189.44 0 104.617-84.813 189.44-189.43 189.44zM344.458 158.464c4.536-4.546 5.099-8.51 0.563-13.056l-11.925-11.925c-4.546-4.536-9.067-4.536-13.619 0l-63.78 63.795-63.488-63.493c-4.542-4.546-8.51-5.12-13.046-0.574l-11.914 11.919c-4.542 4.541-4.542 9.072 0 13.614l63.493 63.493-63.283 63.288c-5.105 5.1-4.547 9.072 0 13.614l11.914 11.909c4.531 4.546 7.941 4.546 13.051-0.563l63.278-63.289 63.575 63.585c5.115 5.099 9.083 4.536 13.619 0l11.914-11.925c4.536-4.536 4.536-7.936-0.563-13.051l-63.575-63.565 63.785-63.78z" />
<glyph unicode="&#xe611;" d="M256 413.44c-104.612 0-189.44-84.828-189.44-189.44s84.828-189.44 189.44-189.44 189.44 84.828 189.44 189.44c0 104.612-84.828 189.44-189.44 189.44zM342.707 184.719c0-8.525-2.724-13.527-8.673-15.632-1.705-14.485-9.442-20.864-24.832-20.864l-106.85 0.031c-5.212 0.174-9.826 2.693-12.8 6.538v0l-0.102 0.118c-0.297 0.368-0.563 0.814-0.829 1.209l-16.502 31.248c-1.643 2.146-2.678 4.721-2.78 7.552h-0.046v39.737c0 3.026 1.065 5.775 2.796 7.987v0.154l17.894 24.397c0.236 0.348 0.625 0.609 1.065 0.609 0.712 0 1.275-0.578 1.275-1.275 0-0.046 0.030-0.154 0.046-0.185v-56.546h1.894v-0.368l0.016 0.368h1.582v73.129c0 11.755 5.064 16.85 16.855 16.85h0.43c11.797 0 16.839-5.090 16.839-16.85v-38.999h3.42v31.478c0 11.786 5.059 16.86 16.886 16.86h0.43c11.781 0 16.87-5.079 16.87-16.86v-31.468h3.43v23.956c0 11.776 5.063 16.855 16.845 16.855h0.399c11.781 0 16.87-5.079 16.87-16.855v-23.972h1.050c0.845 0 1.572 0.016 2.279 0.025v16.354c0 11.76 5.089 16.85 16.87 16.85h0.384c11.796 0 16.855-5.089 16.855-16.834v-75.607h0.133z" />
<glyph unicode="&#xe612;" d="M256 413.44c-104.606 0-189.44-84.813-189.44-189.44 0-104.606 84.834-189.44 189.44-189.44s189.44 84.834 189.44 189.44c0 104.627-84.834 189.44-189.44 189.44zM266.45 100.716c0-4.869-1.736-6.599-6.277-6.599h-21.612c-4.5 0-6.246 1.715-6.246 6.599v27.884c0 4.51 1.731 6.63 6.246 6.63h21.612c4.541 0 6.277-2.12 6.277-6.63v-27.884zM331.955 258.14c0-29.962-18.115-43.202-30.31-49.091l-19.169-9.072c-8.699-4.163-16.026-9.385-16.026-22.277v-17.418c0-4.869-1.736-6.615-6.277-6.615h-21.612c-4.5 0-6.246 1.715-6.246 6.615v25.784c0 20.204 13.23 27.843 22.292 32.368l27.863 14.285c5.581 3.138 15.678 9.754 15.678 24.381v17.762c0 19.159-11.853 30.295-42.506 30.295-30.992 0-42.506-11.136-42.506-30.295v-14.971c0-4.885-1.746-6.953-6.277-6.953h-20.173c-4.869 0-6.615 2.084-6.615 6.953v20.203c0 28.565 17.403 53.637 75.571 53.637s75.924-25.072 76.309-53.637v-21.954z" />
<glyph unicode="&#xe613;" d="M280.002 34.56c15.396 0 21.442 6.851 21.442 21.433v120.883h121.758c15.38 0 22.231 5.99 22.231 21.401v50.606c0 15.401-6.851 20.521-22.231 20.521h-121.754v121.728c0 15.411-6.052 22.308-21.442 22.308h-50.54c-14.623 0-19.789-6.897-19.789-22.308v-121.723h-121.703c-14.576 0-21.417-5.135-21.417-20.521v-50.606c0-15.421 6.841-21.401 21.417-21.401h121.728v-120.889c0-14.577 5.136-21.433 19.773-21.433h50.524z" />
<glyph unicode="&#xe614;" d="M256.010 413.44c-104.622-0.021-189.44-84.839-189.45-189.46 0.005-104.622 84.828-189.43 189.45-189.419 104.637-0.010 189.43 84.803 189.43 189.419 0.015 104.622-84.793 189.44-189.43 189.461zM256.010 76.595c-81.403-0.010-147.405 65.997-147.405 147.405 0 81.388 66.012 147.399 147.405 147.389 81.387-0.010 147.379-66.012 147.369-147.405 0.015-81.372-65.991-147.379-147.369-147.389zM181.775 270.198h-28.529c-2.452 0-3.262-1.080-3.262-3.527v-85.34c0-2.447 0.809-3.538 3.262-3.538h11.812c2.452 0 3.262 1.096 3.262 3.538v29.214h13.456c24.601 0 32.896 10.731 32.896 22.154v15.355c0 11.422-8.29 22.144-32.896 22.144zM196.459 235.822c0-6.666-5.571-10.050-14.679-10.050h-13.456v29.204h13.456c9.113 0 14.679-3.394 14.679-10.194v-8.96zM258.309 270.198h-29.63c-2.437 0-3.246-1.080-3.246-3.527v-85.34c0-2.314 0.676-3.538 2.852-3.538h30.034c24.596 0 33.157 10.736 33.157 22.149v48.108c-0.005 11.428-8.566 22.149-33.168 22.149zM273.122 203.197c0-6.789-5.57-10.199-14.817-10.199h-14.541v61.977h14.536c9.247 0 14.817-3.394 14.817-10.194v-41.584zM308.874 270.198c-2.452 0-3.257-1.080-3.257-3.527v-85.34c0-2.447 0.804-3.538 3.257-3.538h11.822c2.452 0 3.267 1.096 3.267 3.538v36.291h32.338c2.452 0 3.405 0.947 3.405 3.394v8.689c0 2.452-0.957 3.256-3.405 3.256h-32.338v22.016h34.657c2.314 0 3.41 0.958 3.41 3.405v8.56c0 2.442-1.096 3.256-3.41 3.256h-49.746z" />
<glyph unicode="&#xe615;" d="M256.005 413.44c-104.617 0-189.445-84.823-189.445-189.44 0-104.606 84.828-189.44 189.445-189.44s189.435 84.834 189.435 189.44c0 104.617-84.813 189.44-189.435 189.44zM354.365 216.668c0-4.388-1.971-6.087-6.334-6.087h-79.222v-78.956c0-4.147-1.715-6.098-6.159-6.098h-14.387c-4.162 0-5.627 1.95-5.627 6.098v78.951h-78.904c-4.142 0-6.098 1.705-6.098 6.087v14.423c0 4.377 1.956 5.852 6.098 5.852h78.925v79.206c0 4.398 1.48 6.37 5.642 6.37h14.387c4.409 0 6.128-1.966 6.128-6.37v-79.216h79.242c4.337 0 6.334-1.475 6.334-5.852l-0.026-14.408z" />
<glyph unicode="&#xe616;" d="M256.266 296.336c-34.811 0-44.759-14.577-44.759-31.176v-20.034h-8.11c-2.631 0-3.845-1.014-3.845-3.641v-5.059c0-2.837 1.214-3.835 3.845-3.835h8.11v-13.563h-8.11c-2.631 0-3.845-1.014-3.845-3.64v-5.063c0-2.841 1.214-3.861 3.845-3.861h8.11v-19.835c0-16.62 9.917-31.181 44.728-31.181 34.837 0 44.738 14.562 44.738 31.181v12.759c0 2.637-0.993 3.845-3.625 3.845h-11.75c-2.841 0-3.835-1.214-3.835-3.845v-9.518c0-10.952-7.091-17.608-25.324-17.608-18.207 0-25.103 6.661-25.103 17.608v16.594h26.731c2.637 0 3.845 1.019 3.845 3.861v5.033c0 2.642-1.214 3.656-3.845 3.656h-26.732v13.563h26.732c2.637 0 3.845 1.014 3.845 3.835v5.064c0 2.626-1.214 3.641-3.845 3.641h-26.732v16.804c0 10.947 6.897 17.628 25.104 17.628 18.233 0 25.324-6.682 25.324-17.628v-6.666c0-2.837 1.019-4.050 3.835-4.050h11.75c2.637 0 3.625 1.214 3.625 4.050v9.913c0.021 16.594-9.897 31.17-44.708 31.17zM256 413.44c-104.606 0-189.44-84.823-189.44-189.44 0-104.606 84.834-189.44 189.44-189.44s189.44 84.834 189.44 189.44c0 104.617-84.803 189.44-189.44 189.44zM335.596 127.769c0-9.651-7.813-17.433-17.433-17.433h-125.686c-9.62 0-16.071 9.149-16.071 18.78v192.471c0 9.625 6.451 16.082 16.072 16.082h125.68c9.62 0 17.418-7.808 17.418-17.428v-192.466h0.021z" />
<glyph unicode="&#xe617;" d="M128.635 197.827l-31.022-142.505c0-14.526 8.642-20.762 28.82-20.762h259.139c20.178 0 28.815 6.236 28.815 20.762l-31.022 142.505c-3.221 13.87-8.642 20.762-28.815 20.762h-59.106l-24.95-62.034c-7.736-17.92-22.231-17.92-28.989-0.005l-24.945 62.039h-59.106c-20.173-0.005-25.738-6.656-28.821-20.762zM348.329 321.116c0 51.001-41.37 92.324-92.329 92.324-50.995 0-92.298-41.324-92.298-92.324 0-50.959 41.303-92.308 92.298-92.308 50.959-0.005 92.329 41.36 92.329 92.308z" />
<glyph unicode="&#xe618;" d="M318.613 413.44h-125.194c-34.796 0-53.191-18.396-53.191-53.207v-272.486c0-34.791 18.396-53.187 53.191-53.187h125.194c34.78 0 53.161 18.396 53.161 53.192v272.486c0 34.806-18.381 53.202-53.161 53.202zM256.005 72.002c-9.605 0-17.403 7.788-17.403 17.387 0 9.62 7.798 17.387 17.403 17.387 9.62 0 17.403-7.788 17.403-17.387s-7.798-17.387-17.403-17.387zM340.070 134.666h-168.115v225.566c0 17.454 4.014 21.474 21.474 21.474h125.194c17.433 0 21.447-4.019 21.447-21.474v-225.566z" />
<glyph unicode="&#xe619;" d="M85.519 319.908h340.956c12.642 0 18.964 6.318 18.964 18.959v33.188c0.005 12.631-6.303 17.377-18.954 17.377h-340.966c-14.213 0-18.959-4.741-18.959-17.388v-33.188c0-12.631 4.746-18.949 18.959-18.949zM85.519 189.24h340.956c12.642 0 18.964 6.313 18.964 18.954v33.193c0 12.631-6.323 17.382-18.964 17.382h-340.956c-14.213-0.005-18.959-4.756-18.959-17.387v-33.203c0-12.606 4.746-18.939 18.959-18.939zM85.519 58.567h340.956c12.642 0 18.964 6.303 18.964 18.949v33.198c0 12.626-6.323 17.387-18.964 17.387h-340.956c-14.213-0.010-18.959-4.746-18.959-17.372v-33.198c0-12.626 4.746-18.964 18.959-18.964z" />
<glyph unicode="&#xe61a;" d="M84.633 328.341l-13.886-13.973c-5.248-5.305-5.918-9.954 0-15.944l177.147-178.35c0.020 0 0.056-0.015 0.056-0.036l0.614-0.635c5.284-5.305 9.923-4.649 15.207 0.671l12.825 12.949 1.024 1.003 163.267 164.393c5.939 5.99 5.954 9.979 0.671 15.283l-13.901 13.962c-5.248 5.304-9.902 5.99-15.821 0l-156.006-157.056-156.027 157.066c-5.939 5.99-9.902 5.99-15.171 0.665z" />
<glyph unicode="&#xe61b;" d="M405.724 409.6c-16.087 7.813-28.027 3.707-35.84-12.416l-129.101-267.904-107.515 98.105c-13.332 11.94-25.959 11.274-37.929-2.038l-8.919-9.984c-11.971-13.322-11.29-25.969 2.028-37.898l147.507-134.574c7.486-6.717 14.74-9.298 21.806-8.007 0.64 0.046 1.25 0.231 1.863 0.322 0.2 0.067 0.363 0.067 0.558 0.128 7.081 1.428 12.902 6.564 17.331 15.683l152.714 316.872c7.834 16.102 3.682 28.048-12.406 35.856l-12.099 5.858z" />
<glyph unicode="&#xe61c;" d="M199.751 146.821c29.394 0 56.561 9.549 78.576 25.707l133.893-134.006c5.258-5.279 10.517-5.279 15.774-0.010l13.814 13.819c5.253 5.248 4.592 9.872-0.661 15.14l-133.888 134c16.113 22.057 25.661 49.219 25.661 78.654 0 73.61-59.607 133.294-133.166 133.315-73.559-0.020-133.186-59.704-133.197-133.315 0.010-73.615 59.638-133.32 133.191-133.305zM199.751 376.13c52.982 0 95.934-42.992 95.918-96.005 0.005-53.007-42.952-95.995-95.918-96.025-52.976-0.010-95.928 42.988-95.928 96.036-0.010 53.007 42.957 96.005 95.928 95.995z" />
<glyph unicode="&#xe61d;" d="M319.145 350.295h-126.29c-69.647 0-126.295-56.653-126.295-126.295 0-69.647 56.647-126.295 126.295-126.295h126.295c69.647 0 126.29 56.647 126.29 126.295 0 69.642-56.642 126.295-126.295 126.295zM192.855 318.761h15.846v-78.996h-109.189c7.562 44.769 46.474 78.996 93.343 78.996zM99.513 208.24h109.184v-79.007h-15.846c-46.863 0.005-85.775 34.248-93.338 79.007zM319.145 129.239h-78.93v189.522h78.935c52.265 0 94.766-42.506 94.766-94.761-0.005-52.265-42.506-94.761-94.771-94.761z" />
<glyph unicode="&#xe61e;" d="M234.553 276.587v-18.703c0-7.792 3.901-11.684 11.689-11.684h20.485c7.783 0 10.721 3.891 10.721 11.684v18.703c0 8.796-2.939 11.72-10.721 11.72h-20.485c-7.787 0-11.689-2.928-11.689-11.72zM266.726 229.878h-20.485c-7.787 0-11.689-2.934-11.689-11.725v-84.454c0-7.788 3.901-11.689 11.689-11.689h20.485c7.783 0 10.721 3.901 10.721 11.689v84.454c0 8.791-2.939 11.725-10.721 11.725zM256.015 385.168c-14.51 0-28.15-7.767-36.598-20.997l-142.71-231.45c-11.111-16.845-13.297-37.007-5.555-51.471 6.262-11.719 18.002-18.422 32.236-18.422h306.663c13.307 0 24.443 6.052 30.515 16.645 9.462 16.471 3.733 37.934-5.043 52.951l-143.068 231.993c-8.289 12.984-21.888 20.752-36.439 20.752zM404.5 103.173l-297.288 0.010c0.42 2.017 1.367 4.639 3.236 7.454l143.161 232.105c1.849 2.913 3.134 2.622 4.649 0.231l142.649-231.286c1.838-3.128 2.954-6.118 3.594-8.514z" />
<glyph unicode="&#xe61f;" d="M248.725 129.28l-182.165 189.44h378.88z" />
<glyph unicode="&#xe620;" d="M84.644 311.67l-13.865-13.875c-5.289-5.304-5.939-9.928 0-15.862l177.808-146.192c5.709-4.618 9.093-4.291 15.186 0.661l177.127 145.536c5.95 5.934 5.95 9.928 0.671 15.175l-13.88 13.87c-5.269 5.31-9.897 5.945-15.831 0l-156.027-124.385-156.012 124.385c-5.934 5.939-9.907 5.939-15.175 0.686z" />
<glyph unicode="&#xe621;" d="M445.44 129.28h-378.88l182.165 189.44z" />
<glyph unicode="&#xe622;" d="M409.81 409.323l-5.115 2.483c-6.825 3.313-11.894 1.566-15.212-5.264l-161.275-332.032-109.445 98.345c-5.647 5.069-11.003 4.782-16.072-0.865l-3.794-4.229c-5.069-5.652-4.787-11.003 0.865-16.077l126.418-113.598c3.169-2.846 6.251-3.938 9.242-3.399 0.292 0.021 0.569 0.098 0.85 0.149 0.056 0.021 0.118 0.021 0.185 0.041 3.011 0.61 5.474 2.791 7.357 6.661l171.264 352.579c3.313 6.83 1.557 11.899-5.269 15.207z" />
<glyph unicode="&#xe623;" d="M256.010 413.435c-104.617 0-189.45-84.823-189.45-189.435 0-104.601 84.834-189.435 189.45-189.435s189.43 84.834 189.43 189.435c0 104.612-84.813 189.435-189.43 189.435zM354.365 216.668c0-4.388-1.95-6.087-6.329-6.087h-184.304c-4.147 0-6.093 1.705-6.093 6.087v14.423c0 4.377 1.951 5.852 6.093 5.852h184.299c4.377 0 6.329-1.475 6.329-5.852v-14.423z" />
<glyph unicode="&#xe624;" d="M275.958 224l165.478 165.483c5.325 5.32 5.325 10.644 0 15.969l-3.983 3.984c-5.325 5.325-10.644 5.325-15.974 0l-165.478-165.484-165.488 165.494c-5.32 5.325-10.644 5.325-15.969 0.005l-3.984-3.988c-5.325-5.325-5.325-10.65 0-15.975l165.488-165.488-165.499-165.488c-5.314-5.32-5.32-10.644 0-15.969l3.993-3.988c5.32-5.32 10.645-5.315 15.964 0l165.494 165.488 165.483-165.488c5.325-5.32 10.649-5.325 15.974 0l3.983 3.983c5.325 5.325 5.32 10.649 0 15.974l-165.483 165.488z" />
<glyph unicode="&#xe625;" d="M255.984 265.712c-23.045 0-41.692-18.672-41.692-41.707 0-12.242 5.356-23.193 13.788-30.802l26.465 28.242-7.383-38.154c2.857-0.625 5.786-0.962 8.837-0.962 23.030 0 41.718 18.637 41.718 41.677 0 23.035-18.719 41.708-41.733 41.708zM256 343.235c-65.726 0-119.23-53.499-119.23-119.245 0-34.483 14.828-65.536 38.364-87.306l25.185 26.865c-16.348 15.063-26.665 36.526-26.665 60.442 0 45.41 36.956 82.34 82.36 82.34 45.389 0 82.329-36.93 82.329-82.34 0-45.348-36.941-82.288-82.329-82.288-5.683 0-11.202 0.563-16.573 1.659l-6.999-36.199c7.634-1.541 15.493-2.37 23.572-2.37 65.741 0 119.214 53.488 119.214 119.198-0.015 65.746-53.488 119.245-119.23 119.245zM256.015 413.445c-104.474 0-189.456-85.002-189.456-189.497 0-54.656 23.429-103.849 60.621-138.481l25.19 26.89c-30.013 27.868-48.932 67.522-48.932 111.575 0 84.142 68.449 152.596 152.576 152.596 84.111 0 152.514-68.459 152.514-152.596 0-84.060-68.418-152.469-152.514-152.469-10.24 0-20.229 1.050-29.942 3l-6.983-36.229c11.955-2.35 24.284-3.687 36.925-3.687 104.443 0.005 189.424 84.987 189.424 189.399 0 104.494-84.982 189.497-189.424 189.497z" />
<glyph unicode="&#xe626;" d="M273.762 286.331v27.069h-72.402c-3.405 0-6.154-2.775-6.154-6.164v-166.385c0-3.415 2.77-6.185 6.154-6.185h109.461c3.405 0 6.185 2.78 6.185 6.185v0 130.294h-28.073c-8.382 0-15.171 6.81-15.171 15.186zM293.888 221.24c3.492 0 5.048-1.147 5.048-4.67v-11.469c0-3.476-1.557-4.839-5.048-4.839h-27.587v-27.413c0-3.272-1.362-4.823-4.854-4.823h-11.459c-3.313 0-4.47 1.536-4.47 4.823v27.413h-27.587c-3.313 0-4.854 1.362-4.854 4.839v11.469c0 3.507 1.541 4.67 4.854 4.67h27.587v27.602c0 3.471 1.152 5.043 4.47 5.043h11.459c3.492 0 4.854-1.561 4.854-5.043v-27.602h27.587zM256.015 413.44c-104.622 0-189.456-84.823-189.456-189.44 0-104.606 84.833-189.44 189.456-189.44 104.622 0 189.424 84.834 189.424 189.44 0 104.617-84.803 189.44-189.424 189.44zM334.853 139.106c-0.916-12.519-11.279-22.451-24.018-22.451h-109.476c-13.348 0-24.197 10.849-24.197 24.197v166.4c0 13.046 10.404 23.644 23.342 24.11h82.258l52.111-52.076v-140.175h-0.021z" />
<glyph unicode="&#xe627;" d="M256 413.435c-104.637 0-189.44-84.813-189.44-189.44 0-104.606 84.803-189.424 189.44-189.424 104.606 0 189.44 84.818 189.44 189.424 0 104.627-84.834 189.44-189.44 189.44zM239.334 314.926c24.478 0 44.324-19.84 44.324-44.314 0-24.463-19.845-44.318-44.324-44.318-24.464 0-44.309 19.85-44.309 44.318 0.025 24.489 19.861 44.314 44.309 44.314zM301.568 133.063h-124.406c-9.682 0-13.839 3-13.839 9.974l14.889 68.403c1.48 6.764 4.147 9.959 13.824 9.959h28.386l11.96-29.778c3.256-8.601 10.209-8.601 13.911 0l11.991 29.778h28.385c9.666 0 12.298-3.308 13.824-9.959l14.889-68.403c0.010-6.974-4.122-9.974-13.814-9.974zM348.677 266.757c0-2.32-1.019-3.21-3.344-3.21h-18.263v-18.11c0-2.196-0.916-3.21-3.226-3.21v0h-7.547c-2.222 0-2.974 1.014-2.974 3.21v18.125h-18.248c-2.222 0-3.226 0.896-3.226 3.2v7.577c0 2.325 1.009 3.093 3.226 3.093h18.248v18.263c0 2.288 0.752 3.338 2.974 3.338h7.547c2.309 0 3.226-1.034 3.226-3.338v-18.263h18.263c2.309 0 3.344-0.768 3.344-3.093v-7.583z" />
<glyph unicode="&#xe628;" d="M401.305 385.29l-203.673-236.697-97.357 85.612-33.715-47.211 144.051-124.283 234.829 284.949z" />
<glyph unicode="&#xe629;" d="M99.814 137.006l156.022 124.411 156.017-124.411c5.939-5.945 10.558-5.284 15.831 0l13.88 13.88c5.284 5.279 5.269 9.241-0.671 15.175l-177.126 145.536c-6.082 4.962-9.493 5.289-15.196 0.666l-177.797-146.202c-5.945-5.95-5.284-10.567 0-15.841l13.865-13.88c5.278-5.274 9.242-5.274 15.175 0.666z" />
<glyph unicode="&#xe62a;" d="M438.569 381.496l-24.489 24.51c-9.324 9.324-17.485 10.481-27.996 0l-130.673-130.693-130.084 130.094c-10.496 10.501-17.5 10.501-26.823 1.157l-24.489-24.478c-9.334-9.334-10.496-17.5 0-27.986l130.094-130.094-130.53-130.514c-9.323-9.334-9.323-18.652 0-27.976l24.489-24.51c9.323-9.344 17.49-8.166 26.814 1.178l130.519 130.514 131.093-131.134c9.354-9.324 18.652-9.324 27.996 0l24.51 24.51c9.324 9.344 8.166 17.49-1.162 26.834l-131.108 131.097 130.678 130.667c10.486 10.512 10.486 17.495 1.162 26.824z" />
<glyph unicode="&#xe62b;" d="M445.389 326.646l-0.072 68.245c-0.159 13.716-8.945 19.968-17.039 19.968-3.804 0-9.543-1.31-15.37-7.639l-46.116-50.969h-177.198c-17.387 0-31.534-14.147-31.534-31.544v-44.462h-71.030c-11.294 0-20.47-9.16-20.47-20.464v-147.574c0-0.502 0.041-1.003 0.087-1.495l0.067-68.541c0.108-9.513 6.686-12.042 13.127-5.053l49.408 54.625h182.119c11.305 0 20.454 9.165 20.454 20.47v33.377h82.115c17.387 0 31.534 14.157 31.534 31.555v147.568c0 0.666-0.031 1.296-0.082 1.936zM413.932 167.757h-82.11v92.037c0 11.305-9.149 20.465-20.454 20.465h-131.159v44.462c0 5.192 4.208 9.395 9.385 9.395h187.034l46.562 51.466 0.128-208.425c0.005-5.192-4.214-9.401-9.385-9.401z" />
<glyph unicode="&#xe62c;" d="M302.305 155.49c-27.474-11.582-42.363 2.509-59.346 22.584l-32.886 38.841c-17.69 20.88-32.865 34.939-13.025 62.817l-83.313 98.35c-49.434-53.263-30.608-81.582-1.465-115.958l160.154-189.061c29.102-34.365 53.945-57.59 114.632-17.603l-84.751 100.029zM210.8 295.696c4.409 4.444 9.502 9.18 15.416 14.305l3.856 3.257c5.15 4.357 5.822 8.75 2.048 13.204l-70.697 83.456c-4.255 5.012-8.222 4.516-13.358 0.169l-3.856-3.277c-5.709-4.818-10.905-9.472-15.724-13.973l82.314-97.142zM337.438 178.75c-5.99-5.079-11.51-9.324-16.691-12.856l83.303-98.32c5.223 4.004 10.639 8.382 16.358 13.225l3.835 3.246c5.151 4.373 6.298 8.228 2.048 13.245l-71.649 84.588c-3.763 4.439-8.212 4.51-13.348 0.164l-3.856-3.292z" />
<glyph unicode="&#xe62d;" d="M342.994 380.185l-124.411-156.022 124.411-156.017c5.939-5.939 5.284-10.558 0-15.831l-13.88-13.88c-5.279-5.284-9.241-5.269-15.175 0.671l-145.536 177.126c-4.962 6.082-5.284 9.493-0.666 15.196l146.207 177.797c5.95 5.945 10.567 5.284 15.841 0l13.88-13.865c5.269-5.278 5.269-9.241-0.671-15.175z" />
<glyph unicode="&#xe62e;" d="M169.006 380.185l124.411-156.022-124.411-156.012c-5.939-5.939-5.284-10.558 0-15.831l13.881-13.88c5.279-5.284 9.242-5.269 15.175 0.671l145.541 177.126c4.962 6.082 5.284 9.493 0.666 15.196l-146.207 177.792c-5.95 5.945-10.567 5.284-15.841 0l-13.881-13.865c-5.274-5.278-5.274-9.241 0.666-15.175z" />
<glyph unicode="&#xe62f;" d="M222.454 52.644l13.855-13.86c5.345-5.289 9.938-5.95 15.893 0l146.192 177.792c4.618 5.729 4.26 9.108-0.64 15.186l-145.582 177.126c-5.918 5.95-9.912 5.95-15.166 0.671l-13.87-13.891c-5.304-5.268-5.934-9.892 0-15.831l124.406-155.996-124.406-156.037c-5.924-5.934-5.924-9.882-0.681-15.161zM114.201 52.644l13.86-13.86c5.34-5.289 9.933-5.95 15.882 0l146.191 177.792c4.628 5.729 4.27 9.108-0.64 15.186l-145.577 177.126c-5.924 5.95-9.917 5.95-15.171 0.671l-13.86-13.891c-5.32-5.268-5.95-9.892 0-15.831l124.391-155.996-124.391-156.037c-5.939-5.934-5.939-9.882-0.686-15.161z" />
<glyph unicode="&#xe630;" d="M288.865 67.804l-124.406 156.037 124.406 155.996c5.934 5.939 5.305 10.563 0 15.831l-13.87 13.891c-5.253 5.278-9.247 5.278-15.166-0.671l-145.582-177.127c-4.9-6.077-5.258-9.457-0.64-15.186l146.191-177.792c5.95-5.95 10.547-5.289 15.892 0l13.854 13.86c5.243 5.279 5.243 9.226-0.681 15.161zM397.113 67.804l-124.391 156.037 124.39 155.996c5.95 5.939 5.32 10.563 0 15.831l-13.86 13.891c-5.253 5.278-9.247 5.278-15.171-0.671l-145.572-177.127c-4.91-6.077-5.268-9.457-0.64-15.186l146.191-177.792c5.945-5.95 10.542-5.289 15.882 0l13.86 13.86c5.248 5.279 5.248 9.226-0.691 15.161z" />
<glyph unicode="&#xe631;" d="M256 413.44c-104.637 0-189.44-84.839-189.44-189.44s84.803-189.44 189.44-189.44 189.44 84.839 189.44 189.44-84.803 189.44-189.44 189.44zM256 138.752c-47.063 0-85.248 38.149-85.248 85.248s38.185 85.248 85.248 85.248 85.248-38.149 85.248-85.248-38.185-85.248-85.248-85.248z" />
<glyph unicode="&#xe632;" d="M377.603 350.909l-93.066 76.642c-6.637 5.973-15.594 5.308-15.594-5.142v-43.466c-31.355-1.162-59.059-5.973-82.617-14.599-26.873-9.954-48.939-23.226-66.359-40.148-13.772-13.273-24.721-28.534-32.847-45.288-2.156-4.478-4.311-8.958-6.139-13.606-8.46-22.56-14.433-46.949-12.773-71.997 0.498-6.139 3.814-24.721 7.796-24.721 0 0 4.812 25.877 24.385 55.572 6.139 9.124 13.106 17.585 21.069 25.548 0 0 11.282 10.287 17.422 14.599 16.257 11.283 36.33 20.237 59.89 26.873 19.41 5.473 41.476 8.627 65.858 9.789h4.311v-42.966c0-10.452 8.957-9.789 15.594-4.477l93.066 76.642c6.139 5.142 6.139 15.595 0 20.736zM117.814 97.091l93.066-76.642c6.637-5.974 15.595-5.308 15.595 5.142v43.466c31.355 1.162 59.059 5.974 82.617 14.599 26.873 9.954 48.938 23.226 66.359 40.148 13.772 13.272 24.721 28.534 32.847 45.288 2.156 4.478 4.311 8.957 6.139 13.606 8.459 22.56 14.433 46.948 12.773 71.997-0.498 6.139-3.815 24.721-7.796 24.721 0 0-4.812-25.877-24.385-55.572-6.139-9.123-13.106-17.585-21.068-25.548 0 0-11.283-10.287-17.421-14.599-16.257-11.283-36.33-20.237-59.89-26.873-19.409-5.474-41.476-8.627-65.858-9.789h-4.311v42.966c0 10.452-8.958 9.789-15.595 4.478l-93.066-76.642c-6.139-5.142-6.139-15.594 0-20.736z" />
<glyph unicode="&#xe633;" d="M366.151 146.695c6.469 8.957 7.466 20.904-5.639 20.904h-208.363c-13.273 0-14.268-11.945-6.637-20.904l97.047-123.923c6.637-8.13 19.907-8.13 26.378 0l97.214 123.923zM268.938 425.231c-6.469 8.13-19.741 8.13-26.378 0l-97.047-123.923c-7.631-8.957-6.637-20.904 6.637-20.904h208.363c13.106 0 12.11 11.945 5.639 20.904l-97.214 123.923zM76.336 236.278h359.323v-24.549h-359.323v24.549z" />
<glyph unicode="&#xe634;" d="M394.356 329.010l-0.828 0.166c-23.226 1.325-33.344-8.293-33.344-32.016v-32.847l-4.644 0.166-2.156 0.166v48.108c0 23.721-10.121 34.671-33.842 36.162h-0.995c-23.889 1.493-34.338-8.293-34.338-32.185v-48.939l-6.969 0.332v64.202c0 24.055-10.452 35.003-34.838 36.665h-0.828c-24.721 1.657-35.334-8.131-35.334-32.514v-65.030l-7.134 0.332v80.624c0 24.386-10.785 35.502-35.833 37.326h-0.994c-25.216 1.658-36.162-8.293-36.162-32.847v-153.12l-3.484 0.166-4.147 0.166v118.947c0 1.493-1.325 2.655-2.818 2.818-0.995 0-1.823-0.497-2.323-1.162l-39.15-49.435v-0.166c-3.814-4.478-6.139-10.287-6.139-16.589v-84.108c0.332-5.974 2.49-11.445 6.139-16.091l36.162-66.524 1.823-2.655 0.165-0.166c6.469-8.293 16.423-13.606 27.702-14.099l221.3-2.986c30.524-0.332 45.786 12.277 49.104 40.978 11.777 3.983 16.921 13.772 16.921 30.689v150.133c0 23.388-9.789 34.007-33.014 35.335z" />
</font>
</defs>
</svg>
